<?xml version="1.0" encoding="UTF-8"?>
<svg version="1.1" xmlns="http://www.w3.org/2000/svg" width="2938" height="2463">
<path d="M0 0 C969.54 0 1939.08 0 2938 0 C2938 812.79 2938 1625.58 2938 2463 C1968.46 2463 998.92 2463 0 2463 C0 1650.21 0 837.42 0 0 Z " fill="#FEFEFE" transform="translate(0,0)"/>
<path d="M0 0 C2.33659846 -0.00899953 4.67319251 -0.01921272 7.00978088 -0.03053284 C13.30148035 -0.05681265 19.59305709 -0.0640569 25.88480616 -0.0659802 C30.49619886 -0.06848719 35.10756503 -0.07721279 39.71894827 -0.08648963 C52.15068264 -0.11132594 64.582353 -0.122626 77.0141113 -0.12048043 C78.06794408 -0.12030062 78.06794408 -0.12030062 79.14306641 -0.12011719 C79.84650228 -0.11999455 80.54993815 -0.1198719 81.27469026 -0.11974555 C92.66044075 -0.11852761 104.04589298 -0.14721825 115.43155731 -0.18953229 C127.18781955 -0.2328709 138.94393708 -0.25332945 150.70028102 -0.25075096 C157.27429065 -0.24976363 163.84802557 -0.25822686 170.42197037 -0.29028511 C176.61280111 -0.31965672 182.80297766 -0.31934555 188.99383354 -0.29773521 C191.24416388 -0.29463804 193.4945374 -0.30144101 195.74479485 -0.31981659 C217.6006752 -0.48649628 238.58738101 3.33600738 258.11669922 13.43579102 C259.10307373 13.92837402 259.10307373 13.92837402 260.109375 14.4309082 C270.71223612 19.76909265 279.44780266 26.36391759 288.11669922 34.43579102 C288.80119141 35.05067383 289.48568359 35.66555664 290.19091797 36.29907227 C312.19072353 56.96555628 324.14908383 87.82894805 326.11669922 117.43579102 C326.25110751 121.77250547 326.26036586 126.1056582 326.25714111 130.44422913 C326.2615978 132.34425404 326.2615978 132.34425404 326.26614451 134.28266329 C326.27414039 137.76895299 326.2759999 141.25522202 326.27674198 144.74151981 C326.27860556 148.51335432 326.28615924 152.28517843 326.2928772 156.05700684 C326.3064076 164.29077106 326.31247678 172.52453039 326.31688786 180.75830388 C326.31965892 185.90792076 326.32389778 191.05753579 326.32839203 196.20715141 C326.34057714 210.48967019 326.35087836 224.77218749 326.35426712 239.05471134 C326.35448669 239.96722399 326.35470625 240.87973664 326.35493247 241.81990119 C326.35515075 242.73448265 326.35536903 243.64906411 326.35559392 244.59136015 C326.35603737 246.44437031 326.35648393 248.29738047 326.35693359 250.15039062 C326.35715502 251.06952971 326.35737645 251.9886688 326.35760459 252.93566059 C326.36155 267.81846744 326.37899959 282.70122525 326.40229312 297.58401317 C326.42606345 312.8961183 326.43847153 328.20819888 326.43963504 343.52032274 C326.44054854 352.10455434 326.44621866 360.68872199 326.46445465 369.27293587 C326.47993248 376.58405288 326.4849311 383.89508616 326.47671655 391.20621646 C326.47283721 394.92900082 326.47360484 398.65161698 326.4877739 402.37438011 C326.55400889 420.84040211 326.51563366 438.95982215 319.99169922 456.49829102 C319.69384521 457.32063232 319.39599121 458.14297363 319.08911133 458.99023438 C312.58778123 476.31545455 302.88276366 491.05981575 290.11669922 504.43579102 C289.34628296 505.24995483 289.34628296 505.24995483 288.56030273 506.08056641 C273.30429386 521.83323233 253.03977674 531.66772454 232.11669922 537.43579102 C231.2289682 537.6907091 230.34123718 537.94562719 229.42660522 538.20827007 C217.79867073 541.14051325 206.26967634 540.85086701 194.35107422 540.80810547 C191.96781252 540.81053717 189.58455184 540.81426016 187.20129395 540.81916809 C180.76331667 540.82852877 174.32549271 540.81919224 167.88752747 540.80583596 C161.81658091 540.79432723 155.74563426 540.7981394 149.67468023 540.80003848 C137.64360879 540.8032196 125.61259678 540.79161133 113.58154297 540.77197266 C101.93829539 540.75297232 90.29511744 540.74588623 78.65185547 540.75146484 C65.93742415 540.75753877 53.22302333 540.75731611 40.50859451 540.74597901 C39.14981334 540.74477187 37.79103216 540.74356588 36.43225098 540.74236107 C35.42973632 540.74145576 35.42973632 540.74145576 34.40696883 540.74053216 C29.72357841 540.73667195 25.04020327 540.73709974 20.35681152 540.73894691 C14.03985533 540.7408393 7.72298765 540.73265314 1.40605164 540.71688652 C-0.90370823 540.71266695 -3.21347711 540.71177732 -5.52323914 540.71457672 C-40.32218032 540.75033508 -70.28331521 532.25992662 -96.22949219 508.28271484 C-100.55130967 504.37055751 -103.27424539 503.34347769 -109.05737305 503.5480957 C-110.82939087 503.70133301 -110.82939087 503.70133301 -112.63720703 503.85766602 C-121.03442892 504.51065129 -129.40036709 504.67686959 -137.82080078 504.68579102 C-138.57832642 504.68713043 -139.33585205 504.68846985 -140.11633301 504.68984985 C-153.5533418 504.68473845 -166.6214012 503.69313563 -179.88330078 501.43579102 C-180.58181152 501.32364258 -181.28032227 501.21149414 -182 501.09594727 C-228.08165583 493.58754571 -272.20976734 471.41523827 -306.88330078 440.43579102 C-307.40263184 439.97285645 -307.92196289 439.50992187 -308.45703125 439.03295898 C-318.7594864 429.80759318 -328.31545858 420.31926624 -336.88330078 409.43579102 C-337.68767578 408.42516602 -338.49205078 407.41454102 -339.32080078 406.37329102 C-368.13033149 369.83864684 -387.45434317 326.01041138 -392.32788086 279.6105957 C-393.02085183 272.99192621 -393.02085183 272.99192621 -396.33251953 267.38891602 C-397.17427734 266.74438477 -398.01603516 266.09985352 -398.88330078 265.43579102 C-400.43017578 263.33813477 -400.43017578 263.33813477 -401.63330078 261.37329102 C-402.04064453 260.72231445 -402.44798828 260.07133789 -402.86767578 259.40063477 C-406.39552119 252.57561077 -406.07196137 242.77875091 -404.08251953 235.51000977 C-400.67232888 227.9747775 -394.91000818 222.52139425 -387.61767578 218.74438477 C-383.39643963 217.26518591 -379.94066968 216.89740905 -375.50830078 216.93579102 C-374.3872998 216.94219604 -374.3872998 216.94219604 -373.24365234 216.94873047 C-365.44981422 217.18878883 -360.82768907 219.81855698 -355.07080078 224.93579102 C-354.34892578 225.76079102 -353.62705078 226.58579102 -352.88330078 227.43579102 C-351.83142578 228.58047852 -351.83142578 228.58047852 -350.75830078 229.74829102 C-345.82721594 236.81617929 -344.74046154 243.9787806 -345.88330078 252.43579102 C-347.46191069 257.47564931 -349.0969603 262.64945053 -352.88330078 266.43579102 C-352.94620174 268.69022981 -352.94620174 268.69022981 -352.56298828 271.28344727 C-352.44221924 272.27231934 -352.3214502 273.26119141 -352.19702148 274.2800293 C-352.05224365 275.34205566 -351.90746582 276.40408203 -351.75830078 277.49829102 C-351.54016724 279.13386963 -351.54016724 279.13386963 -351.31762695 280.80249023 C-345.56060289 322.16416605 -326.37547042 361.3668183 -298.10205078 392.02954102 C-295.1127492 395.27145963 -292.21865086 398.59592651 -289.31689453 401.91625977 C-271.79426317 420.05766783 -249.65807258 433.91857328 -226.88330078 444.43579102 C-226.17689453 444.76675781 -225.47048828 445.09772461 -224.74267578 445.4387207 C-205.84422657 454.19265662 -185.56570559 459.92920556 -164.88330078 462.43579102 C-164.15433594 462.52497803 -163.42537109 462.61416504 -162.67431641 462.70605469 C-155.21894174 463.53553392 -147.75221392 463.76290034 -140.25830078 463.99829102 C-138.96794922 464.04147461 -137.67759766 464.0846582 -136.34814453 464.12915039 C-133.19328145 464.23431249 -130.03835183 464.33645705 -126.88330078 464.43579102 C-127.14667236 463.81470459 -127.41004395 463.19361816 -127.68139648 462.55371094 C-129.9744019 457.01066071 -131.78484087 451.60293552 -133.07080078 445.74829102 C-133.23515625 445.04124023 -133.39951172 444.33418945 -133.56884766 443.60571289 C-135.56784078 434.82471069 -136.03017607 426.5687037 -136.02374268 417.56669617 C-136.02819936 415.61666985 -136.02819936 415.61666985 -136.03274608 413.62724906 C-136.04078517 410.02930795 -136.04260392 406.43138683 -136.04334354 402.8334378 C-136.04519959 398.94837595 -136.05274987 395.06332433 -136.05947876 391.17826843 C-136.07304243 382.68601108 -136.07908424 374.19375846 -136.08348942 365.70149207 C-136.08625617 360.39242755 -136.09049441 355.08336483 -136.09499359 349.77430153 C-136.10718559 335.05787998 -136.11748381 320.34145987 -136.12086868 305.62503338 C-136.12108825 304.68367174 -136.12130782 303.74231011 -136.12153403 302.77242236 C-136.12175231 301.82887397 -136.12197059 300.88532559 -136.12219548 299.91318482 C-136.12263894 298.00136801 -136.1230855 296.08955119 -136.12353516 294.17773438 C-136.12375659 293.22941775 -136.12397802 292.28110112 -136.12420616 291.30404762 C-136.12814908 275.95863049 -136.14558794 260.61326098 -136.16889468 245.26786222 C-136.192663 229.49031867 -136.20507309 213.71279896 -136.2062366 197.93523723 C-136.20715049 189.08602193 -136.21282998 180.23686864 -136.23105621 171.38767052 C-136.24653161 163.847721 -136.25153426 156.30785264 -136.24331811 148.76789024 C-136.23943723 144.92767017 -136.24021399 141.08761316 -136.25437546 137.24741364 C-136.38745532 98.90265077 -129.1393725 66.81628814 -101.88330078 38.43579102 C-101.04025391 37.52958008 -100.19720703 36.62336914 -99.32861328 35.68969727 C-72.42152248 7.57373716 -37.45340297 -0.0291589 0 0 Z " fill="#FAC826" transform="translate(1508.88330078125,826.564208984375)"/>
<path d="M0 0 C1.12100098 0.00640503 1.12100098 0.00640503 2.26464844 0.01293945 C10.05848656 0.25299781 14.68061172 2.88276597 20.4375 8 C21.159375 8.825 21.88125 9.65 22.625 10.5 C23.32625 11.263125 24.0275 12.02625 24.75 12.8125 C29.68108485 19.88038828 30.76783924 27.04298959 29.625 35.5 C28.04639009 40.53985829 26.41134048 45.71365952 22.625 49.5 C22.56209904 51.75443879 22.56209904 51.75443879 22.9453125 54.34765625 C23.06608154 55.33652832 23.18685059 56.32540039 23.3112793 57.34423828 C23.45605713 58.40626465 23.60083496 59.46829102 23.75 60.5625 C23.96813354 62.19807861 23.96813354 62.19807861 24.19067383 63.86669922 C29.94769789 105.22837504 49.13283036 144.43102729 77.40625 175.09375 C80.39555158 178.33566861 83.28964993 181.66013549 86.19140625 184.98046875 C103.71403761 203.12187682 125.8502282 216.98278227 148.625 227.5 C149.33140625 227.8309668 150.0378125 228.16193359 150.765625 228.50292969 C169.67464199 237.2617607 189.93812061 242.96529304 210.625 245.5 C211.3053833 245.5913623 211.9857666 245.68272461 212.68676758 245.77685547 C271.97902111 252.84108389 329.97835582 235.07263878 376.75 198.5625 C382.60615585 193.79474153 388.13361982 188.67911029 393.625 183.5 C394.35847656 182.8090625 395.09195312 182.118125 395.84765625 181.40625 C401.25728814 176.15793914 405.99280668 170.43851688 410.625 164.5 C411.05184082 163.9548877 411.47868164 163.40977539 411.91845703 162.84814453 C433.46224449 135.11297976 448.07510059 102.47558472 453.9375 67.875 C454.10902588 66.86783936 454.28055176 65.86067871 454.45727539 64.82299805 C456.56657926 54.05117403 456.56657926 54.05117403 453.1875 44.125 C452.73503906 43.47789063 452.28257812 42.83078125 451.81640625 42.1640625 C451.42324219 41.61492187 451.03007813 41.06578125 450.625 40.5 C447.73020438 34.71040876 448.8189585 24.58654917 450.42578125 18.43359375 C453.81709385 10.98669082 459.68618389 5.5400806 466.890625 1.80859375 C471.11186115 0.32939489 474.5676311 -0.03838196 479 0 C479.74733398 0.00427002 480.49466797 0.00854004 481.26464844 0.01293945 C489.01157315 0.25155283 493.58891552 2.87792704 499.375 7.875 C506.0912089 15.71057705 509.156089 21.83118154 508.93359375 32.40625 C508.40254033 37.73022862 507.08512716 43.23666802 503.02270508 46.97412109 C496.10801719 53.52122961 495.64914983 61.65523035 494.4375 70.625 C493.99894567 73.67132293 493.54490589 76.71509455 493.08203125 79.7578125 C492.96937424 80.50312729 492.85671722 81.24844208 492.74064636 82.01634216 C491.63244524 89.03215696 489.78036459 95.73399843 487.625 102.5 C487.31038818 103.51900391 486.99577637 104.53800781 486.67163086 105.58789062 C477.40953507 135.03978258 463.77757698 162.25211481 444.625 186.5 C443.98304688 187.33402344 443.34109375 188.16804688 442.6796875 189.02734375 C430.51254108 204.61803947 416.31074824 219.43884697 400.625 231.5 C400.06151855 231.94520996 399.49803711 232.39041992 398.91748047 232.84912109 C383.3989809 245.10886013 366.54566567 255.16013828 348.625 263.5 C347.99207031 263.79712891 347.35914063 264.09425781 346.70703125 264.40039062 C325.05563442 274.47948915 302.14303081 281.49034743 278.5625 285.3125 C277.87470459 285.42432617 277.18690918 285.53615234 276.47827148 285.65136719 C263.6520962 287.53992081 250.62948804 287.736288 237.6875 287.75 C236.92997437 287.75133942 236.17244873 287.75267883 235.39196777 287.75405884 C221.95495898 287.74894743 208.88689958 286.75734461 195.625 284.5 C194.92648926 284.38785156 194.22797852 284.27570313 193.50830078 284.16015625 C147.42664496 276.6517547 103.29853344 254.47944726 68.625 223.5 C68.10566895 223.03706543 67.58633789 222.57413086 67.05126953 222.09716797 C56.74881439 212.87180216 47.1928422 203.38347522 38.625 192.5 C37.820625 191.489375 37.01625 190.47875 36.1875 189.4375 C7.37796929 152.90285582 -11.94604239 109.07462036 -16.81958008 62.67480469 C-17.51255105 56.0561352 -17.51255105 56.0561352 -20.82421875 50.453125 C-21.66597656 49.80859375 -22.50773437 49.1640625 -23.375 48.5 C-24.921875 46.40234375 -24.921875 46.40234375 -26.125 44.4375 C-26.53234375 43.78652344 -26.9396875 43.13554688 -27.359375 42.46484375 C-30.88722041 35.63981975 -30.56366058 25.84295989 -28.57421875 18.57421875 C-25.1640281 11.03898648 -19.4017074 5.58560323 -12.109375 1.80859375 C-7.88813885 0.32939489 -4.4323689 -0.03838196 0 0 Z " fill="#010100" transform="translate(1133.375,1043.5)"/>
<path d="M0 0 C1.1988961 -0.0076664 1.1988961 -0.0076664 2.42201233 -0.01548767 C5.06315637 -0.02937536 7.70403861 -0.02842507 10.34521484 -0.02612305 C12.19827367 -0.03001533 14.05133162 -0.03435109 15.90438843 -0.03910828 C19.79647705 -0.04657234 23.68847503 -0.04628144 27.58056641 -0.04101562 C32.51447433 -0.03527325 37.44800043 -0.05202291 42.38184547 -0.0753603 C46.21715385 -0.09027286 50.05237451 -0.09094499 53.88770676 -0.08785057 C55.70296346 -0.08835679 57.51822603 -0.0934597 59.33345413 -0.10366249 C81.87211343 -0.21463357 105.84322314 1.73849387 123.39990234 17.48950195 C133.35339552 27.72501077 137.10699802 39.18777899 137.11865234 53.1496582 C137.13089844 53.91407227 137.14314453 54.67848633 137.15576172 55.46606445 C137.18937151 68.6635095 132.05974094 79.8355734 122.93115234 89.2746582 C114.38115234 96.2746582 114.38115234 96.2746582 110.93115234 96.2746582 C110.93115234 96.9346582 110.93115234 97.5946582 110.93115234 98.2746582 C112.18927734 98.6252832 113.44740234 98.9759082 114.74365234 99.3371582 C126.67568453 103.36445321 137.80396935 112.19859663 143.93115234 123.2746582 C149.99172224 136.84923784 150.42929761 155.57235442 145.25927734 169.5168457 C142.99641754 174.21560754 140.26177767 178.27082137 136.93115234 182.2746582 C136.40779297 182.91016602 135.88443359 183.54567383 135.34521484 184.20043945 C122.2456782 198.60992976 100.99466663 203.18019071 82.32299042 204.45236206 C75.9000806 204.73788064 69.4764699 204.74619071 63.04833984 204.7434082 C61.01197101 204.75053291 58.97560412 204.75823515 56.9392395 204.76647949 C52.71220271 204.77979584 48.48535244 204.78154767 44.25830078 204.77563477 C38.85950994 204.76969652 33.46160531 204.80055975 28.06298637 204.84075165 C23.87465647 204.86664402 19.68654114 204.86950566 15.49814224 204.86585999 C13.50713974 204.86754425 11.51612659 204.87711936 9.5252037 204.89500427 C-10.83532716 205.05808102 -10.83532716 205.05808102 -18.58572388 197.86730957 C-23.71572018 192.32359831 -25.44198779 186.42738033 -25.45652771 179.07081604 C-25.46191325 178.38035924 -25.46729879 177.68990245 -25.47284752 176.97852272 C-25.48706436 174.68325018 -25.48003931 172.38855951 -25.47290039 170.09326172 C-25.47860726 168.44020121 -25.48557274 166.78714463 -25.49369812 165.13409424 C-25.51160953 160.65678462 -25.51046497 156.17967121 -25.50475574 151.70233655 C-25.50166102 147.95982074 -25.50775948 144.21734246 -25.51379448 140.474832 C-25.52783142 131.64367122 -25.52628529 122.8126072 -25.51489258 113.98144531 C-25.50341145 104.88082276 -25.51748881 95.78049492 -25.54428905 86.6799112 C-25.56646321 78.85633414 -25.57307958 71.03284948 -25.56721264 63.20924324 C-25.56384605 58.54097461 -25.56623834 53.87289489 -25.58346367 49.20465279 C-25.59895815 44.81405422 -25.59494965 40.42389145 -25.57615852 36.03330994 C-25.57247959 34.42572041 -25.57556082 32.81809842 -25.58604431 31.21053886 C-25.64282422 21.78100332 -25.60125843 14.44683273 -19.10400391 7.0324707 C-18.45302734 6.49364258 -17.80205078 5.95481445 -17.13134766 5.3996582 C-16.48294922 4.84536133 -15.83455078 4.29106445 -15.16650391 3.7199707 C-10.29046091 0.36031352 -5.79445451 -0.01921759 0 0 Z " fill="#11100E" transform="translate(805.06884765625,1460.725341796875)"/>
<path d="M0 0 C9.54755383 6.26189873 14.99590682 17.46951891 20.72122192 27.01763916 C22.57499151 30.10866052 24.44093163 33.19233739 26.3046875 36.27734375 C26.68446243 36.90671844 27.06423737 37.53609314 27.45552063 38.18453979 C31.23730901 44.44812837 35.06681357 50.68172657 38.90625 56.91015625 C39.55005615 57.95623047 40.1938623 59.00230469 40.85717773 60.08007812 C43.97824867 65.14846397 47.1067142 70.21209754 50.24986267 75.26681519 C51.75447989 77.6876614 53.25581743 80.11053272 54.75680542 82.53363037 C55.47692495 83.69404647 56.19868693 84.85344506 56.92214966 86.01177979 C57.92081885 87.61084996 58.9136841 89.21354053 59.90625 90.81640625 C60.47472656 91.72970703 61.04320312 92.64300781 61.62890625 93.58398438 C62.84375 95.78515625 62.84375 95.78515625 62.84375 97.78515625 C65.33601843 95.49219548 67.00394705 93.09896421 68.7421875 90.19921875 C69.29696777 89.27971436 69.85174805 88.36020996 70.42333984 87.4128418 C71.0158252 86.42195557 71.60831055 85.43106934 72.21875 84.41015625 C73.4888933 82.30427116 74.75974107 80.19881082 76.03125 78.09375 C76.67191406 77.03140137 77.31257813 75.96905273 77.97265625 74.87451172 C80.69011258 70.38773036 83.45064614 65.92831129 86.21875 61.47265625 C90.44421984 54.66556945 94.65187274 47.84796401 98.84277344 41.01953125 C101.5360919 36.6347629 104.23819928 32.25544346 106.94091797 27.87646484 C108.74137915 24.9514662 110.52957387 22.01927337 112.31640625 19.0859375 C113.3666096 17.38115427 114.41735505 15.67670483 115.46875 13.97265625 C115.92902588 13.20872559 116.38930176 12.44479492 116.86352539 11.65771484 C120.57047712 5.69533272 124.77331858 0.67404523 131.84375 -1.21484375 C139.01006707 -2.04663237 148.19708035 -2.9429628 154.59375 0.84765625 C156.3046875 2.22265625 156.3046875 2.22265625 157.84375 3.78515625 C158.41351562 4.36265625 158.98328125 4.94015625 159.5703125 5.53515625 C164.4010533 10.84668168 166.09185268 14.50179427 166.11117554 21.8180542 C166.11570665 22.52636548 166.12023776 23.23467677 166.12490618 23.96445203 C166.13756685 26.33802131 166.13592875 28.71136162 166.13427734 31.08496094 C166.14026166 32.78683772 166.14706698 34.48871179 166.15463257 36.19058228 C166.1723121 40.81471653 166.17698884 45.43877677 166.17826414 50.06294155 C166.17968547 52.95291095 166.18395478 55.84286151 166.18925858 58.73282623 C166.20776703 68.81799006 166.21592838 78.903101 166.21435547 88.98828125 C166.21315463 98.38363738 166.23424354 107.77876358 166.2658428 117.17406154 C166.29201502 125.24385048 166.30272233 133.31356438 166.30144465 141.38339543 C166.30093519 146.20150789 166.30660926 151.01941614 166.32780075 155.83748627 C166.34719845 160.37165802 166.34729717 164.90543115 166.33276749 169.43961716 C166.33068001 171.1004253 166.33537664 172.76125848 166.3474884 174.42202377 C166.46346599 191.43165986 166.46346599 191.43165986 160.09765625 198.80859375 C159.53949219 199.25460937 158.98132812 199.700625 158.40625 200.16015625 C157.85066406 200.62164063 157.29507812 201.083125 156.72265625 201.55859375 C150.25383544 205.78148301 143.32484476 205.47327582 135.84375 204.78515625 C130.43062956 202.42306733 126.25142942 197.59158011 122.84375 192.78515625 C121.94045961 189.90793178 121.71046418 187.28612302 121.68553162 184.27996826 C121.67084839 182.93386978 121.67084839 182.93386978 121.65586853 181.56057739 C121.65011307 180.58378021 121.6443576 179.60698303 121.63842773 178.60058594 C121.62852814 177.56612335 121.61862854 176.53166077 121.60842896 175.46585083 C121.57683916 172.04626759 121.55206637 168.62667046 121.52734375 165.20703125 C121.50677206 162.83619831 121.48577553 160.46536902 121.46437073 158.09454346 C121.40917235 151.85403398 121.35975316 145.61349152 121.31152344 139.3729248 C121.26129216 133.00509709 121.20561457 126.63731728 121.15039062 120.26953125 C121.04283635 107.7747805 120.94138525 95.27998817 120.84375 82.78515625 C120.4448097 83.41277548 120.04586941 84.04039471 119.63484001 84.6870327 C117.80490779 87.56549306 115.97447901 90.44363734 114.14404297 93.32177734 C113.51656662 94.30895248 112.88909027 95.29612762 112.24259949 96.31321716 C107.53575466 103.71303961 102.78108958 111.07841536 97.96875 118.41015625 C97.288125 119.45042969 96.6075 120.49070312 95.90625 121.5625 C76.9303043 150.53148174 76.9303043 150.53148174 69.84375 152.78515625 C63.45023539 153.74335741 57.62279342 153.81807283 51.96875 150.41015625 C47.13393453 146.6176289 44.0791615 141.94609605 40.84375 136.78515625 C40.0153174 135.50762241 39.18441394 134.23168876 38.3515625 132.95703125 C35.98048448 129.32186212 33.62946057 125.67417421 31.28320312 122.02294922 C28.97767718 118.43874793 26.66021977 114.86228984 24.34375 111.28515625 C23.44007779 109.88803789 22.53643209 108.49090239 21.6328125 107.09375 C19.67210959 104.06325515 17.70799023 101.03500154 15.7421875 98.0078125 C15.23623047 97.22792969 14.73027344 96.44804688 14.20898438 95.64453125 C13.23456924 94.1426804 12.25934225 92.6413559 11.28320312 91.140625 C7.9562122 86.01008065 7.9562122 86.01008065 6.84375 83.78515625 C6.84454559 85.09092621 6.84534119 86.39669617 6.84616089 87.74203491 C6.84976931 100.07123505 6.82188324 112.40001913 6.7634716 124.72908592 C6.73444793 131.06704871 6.71637006 137.40464245 6.72363281 143.74267578 C6.73023885 149.86377394 6.70766694 155.98414365 6.66519547 162.10509109 C6.65408718 164.43573029 6.65334339 166.76644357 6.66332626 169.09708786 C6.67555135 172.37200249 6.6503205 175.64471148 6.61669922 178.91943359 C6.62892014 179.87465912 6.64114105 180.82988464 6.6537323 181.8140564 C6.52094158 189.0317077 4.26878673 194.08759787 -0.15625 199.78515625 C-5.0635573 204.25661677 -9.99783529 204.97604658 -16.46875 205.09765625 C-17.76425781 205.13503906 -19.05976562 205.17242188 -20.39453125 205.2109375 C-26.11035749 204.56397482 -29.77057655 201.67250955 -33.40625 197.34765625 C-33.88578125 196.79207031 -34.3653125 196.23648437 -34.859375 195.6640625 C-37.98908035 191.12976048 -38.4092148 187.10947998 -38.42367554 181.66996765 C-38.42820665 180.9648855 -38.43273776 180.25980334 -38.43740618 179.53335506 C-38.45004079 177.17671062 -38.44843044 174.82029756 -38.44677734 172.46362305 C-38.45276322 170.77145084 -38.4595689 169.07928137 -38.46713257 167.38711548 C-38.48479452 162.79403107 -38.48948805 158.20102119 -38.49076414 153.6079061 C-38.49218627 150.73685987 -38.49645705 147.86583256 -38.50175858 144.99479103 C-38.52026 134.97446109 -38.52842911 124.95418435 -38.52685547 114.93383789 C-38.52565427 105.60037637 -38.54675213 96.26714617 -38.5783428 86.93374318 C-38.60451478 78.914889 -38.61522237 70.89611033 -38.61394465 62.87721378 C-38.61343526 58.0904148 -38.61910581 53.3038214 -38.64030075 48.51706505 C-38.65969849 44.01324788 -38.65979716 39.50983203 -38.64526749 35.00600052 C-38.64318014 33.35647939 -38.64787588 31.70693304 -38.6599884 30.05745506 C-38.77669891 13.05779576 -38.77669891 13.05779576 -32.19140625 5.54296875 C-31.54042969 5.00414062 -30.88945313 4.4653125 -30.21875 3.91015625 C-29.57035156 3.35585937 -28.92195313 2.8015625 -28.25390625 2.23046875 C-20.62986131 -3.0225976 -8.52283618 -3.28044809 0 0 Z " fill="#11100E" transform="translate(1450.15625,1461.21484375)"/>
<path d="M0 0 C1.77734375 1.12109375 1.77734375 1.12109375 3.375 2.3125 C4.426875 3.055 5.47875 3.7975 6.5625 4.5625 C12.00454978 9.88361534 15.13762501 16.55089293 18.09765625 23.48046875 C18.60424271 24.64385017 18.60424271 24.64385017 19.12106323 25.83073425 C19.85004394 27.50655044 20.57619627 29.1835993 21.29977417 30.86175537 C22.87160875 34.50664416 24.45768871 38.14527846 26.04304504 41.78430176 C26.88012123 43.70580774 27.71652692 45.62760595 28.55229187 47.54968262 C33.07996249 57.95527606 37.69409751 68.32194283 42.3125 78.6875 C43.99275285 82.46198813 45.67228441 86.23679686 47.3515625 90.01171875 C47.76712402 90.94579559 48.18268555 91.87987244 48.61083984 92.84225464 C53.94270888 104.83132452 59.24707662 116.83256748 64.54223633 128.83789062 C65.3132973 130.58594478 66.08437463 132.33399172 66.85546875 134.08203125 C67.23151749 134.93459503 67.60756622 135.78715881 67.99501038 136.66555786 C70.24096583 141.7540398 72.49702808 146.83788883 74.76243591 151.91773987 C76.17875442 155.09426282 77.59152825 158.2723561 79.0039978 161.45059204 C79.66006497 162.92404448 80.31791915 164.39670274 80.97769165 165.86849976 C81.87770799 167.87648381 82.77154046 169.88711365 83.6640625 171.8984375 C84.41743896 173.58525635 84.41743896 173.58525635 85.18603516 175.30615234 C87.44727343 181.02378851 88.58016206 186.85914324 86.50390625 192.80859375 C83.24258893 200.00487753 79.55109914 203.44658336 72.4375 206.625 C65.07573429 208.27764128 60.57653417 207.35519154 53.8671875 204.1875 C46.01398829 198.27913696 42.68167067 188.96469114 38.94091797 180.2019043 C37.99253738 177.98253622 37.02687877 175.77129343 36.05859375 173.56054688 C35.44690061 172.14887733 34.83618722 170.73678276 34.2265625 169.32421875 C33.93915192 168.6648381 33.65174133 168.00545746 33.35562134 167.32609558 C32.14510738 164.47469022 31.375 162.44573401 31.375 159.3125 C-13.175 159.8075 -13.175 159.8075 -58.625 160.3125 C-63.575 171.5325 -68.525 182.7525 -73.625 194.3125 C-78.2429896 201.2394844 -81.72278305 204.67842768 -89.625 207.3125 C-95.73577268 208.342154 -100.28950076 207.16547677 -105.54296875 203.9453125 C-110.30123882 200.21368607 -113.79066407 195.45280948 -114.99511719 189.47583008 C-115.76472072 179.86960477 -110.77804527 171.47954164 -106.875 163 C-106.0565835 161.18540243 -105.24005444 159.36995256 -104.42529297 157.55371094 C-102.70937321 153.73469528 -100.98383453 149.92024558 -99.25097656 146.10888672 C-96.69671913 140.48312706 -94.18165793 134.84058423 -91.6796875 129.19140625 C-91.27433777 128.2763028 -90.86898804 127.36119934 -90.45135498 126.41836548 C-89.63032853 124.56455103 -88.80938545 122.71069965 -87.98852539 120.85681152 C-85.90151369 116.14817908 -83.80610309 111.44328981 -81.7109375 106.73828125 C-77.868405 98.10744043 -74.02882108 89.47529587 -70.1930542 80.84144592 C-68.08906453 76.10571208 -65.98376527 71.37057238 -63.875 66.63696289 C-60.27467155 58.5517847 -56.6822381 50.46391184 -53.14880371 42.34922791 C-51.69574999 39.01332376 -50.23559187 35.68055082 -48.77502441 32.34793091 C-48.10281301 30.80815691 -47.43430377 29.26676022 -46.76989746 27.72360229 C-37.59419784 6.41450414 -37.59419784 6.41450414 -27.625 0.3125 C-19.5803314 -2.531378 -7.98056946 -3.81276723 0 0 Z " fill="#11100E" transform="translate(1751.625,1459.6875)"/>
<path d="M0 0 C1.78179153 -0.01029488 1.78179153 -0.01029488 3.59957886 -0.02079773 C6.84144775 -0.03591432 10.08295415 -0.03757314 13.32484317 -0.03185534 C16.03843839 -0.02875405 18.75198215 -0.03486636 21.46557003 -0.04089409 C27.87080812 -0.05491649 34.27591276 -0.05339718 40.68115234 -0.04199219 C47.27336482 -0.03051314 53.86517035 -0.04458786 60.45732921 -0.07138866 C66.13231203 -0.09359067 71.80716753 -0.10017296 77.48219067 -0.09431225 C80.86498553 -0.09095216 84.2475196 -0.09329396 87.63027763 -0.11056328 C91.40486666 -0.12546636 95.17856359 -0.11479955 98.953125 -0.09765625 C100.61869698 -0.1121582 100.61869698 -0.1121582 102.31791687 -0.12695312 C109.3915221 -0.05979603 115.27567218 0.81559878 120.55995846 5.85131168 C125.5455841 11.55902984 126.55121831 15.91005228 126.42407227 23.35717773 C125.68617074 29.23027154 122.72643294 32.80313821 118.54125977 36.77905273 C112.88092421 40.45827085 108.2395726 40.68487515 101.66113281 40.63110352 C100.72405991 40.63139557 99.786987 40.63168762 98.82151794 40.63198853 C95.73190979 40.63059798 92.64254441 40.61504958 89.55297852 40.59936523 C87.40778231 40.59563413 85.26258439 40.59278762 83.11738586 40.59078979 C77.47687051 40.58316103 71.83645848 40.56351894 66.19598389 40.54138184 C60.43804319 40.52090718 54.68008576 40.51178461 48.92211914 40.50170898 C37.62844669 40.4802724 26.334878 40.44509633 15.04125977 40.40405273 C15.04125977 53.93405273 15.04125977 67.46405273 15.04125977 81.40405273 C20.91680664 81.33444336 26.79235352 81.26483398 32.84594727 81.19311523 C36.58296654 81.16243388 40.31982908 81.13354902 44.05688477 81.11108398 C49.9800671 81.07530763 55.90268944 81.03312604 61.82543945 80.95141602 C66.6041487 80.88590667 71.38225692 80.85028037 76.16138077 80.83478928 C77.97858254 80.82375929 79.79575386 80.80222038 81.6126976 80.76967239 C100.38155369 80.44702825 100.38155369 80.44702825 108.04125977 87.40405273 C112.24346981 92.12148105 113.35830274 96.83714607 113.24829102 102.99780273 C112.75398287 108.74296907 111.01055762 112.86670204 106.72875977 116.77905273 C101.4172468 121.21150411 95.52113355 121.69564161 88.83276367 121.63110352 C88.03209473 121.63139557 87.23142578 121.63168762 86.40649414 121.63198853 C83.77682415 121.63060228 81.14744237 121.61507453 78.51782227 121.59936523 C76.68793899 121.59563259 74.85805371 121.59278681 73.02816772 121.59078979 C68.22445099 121.58317312 63.42085622 121.56354156 58.6171875 121.54138184 C52.846863 121.51727317 47.07649759 121.50813306 41.30613708 121.49647522 C32.55109329 121.47711599 23.79631683 121.43877971 15.04125977 121.40405273 C15.04125977 135.59405273 15.04125977 149.78405273 15.04125977 164.40405273 C21.92743164 164.34604492 28.81360352 164.28803711 35.90844727 164.22827148 C40.28347097 164.20270931 44.65840198 164.17863866 49.03344727 164.15991211 C55.97049191 164.13007821 62.90720506 164.09486921 69.84399414 164.02685547 C75.43964383 163.97233765 81.03493779 163.94259031 86.63083267 163.92966652 C88.76059693 163.92046214 90.89034277 163.9024882 93.01995468 163.87540245 C115.04212127 163.60657168 115.04212127 163.60657168 122.04125977 169.40405273 C126.39536123 173.90383316 127.35636291 177.78522825 127.54125977 184.02905273 C127.26531073 190.48775169 125.9448397 194.13033225 121.79125977 199.09155273 C114.96125505 204.83496579 108.58988749 204.84261422 99.99072266 204.80810547 C98.79310806 204.81496872 97.59549347 204.82183197 96.36158752 204.8289032 C93.09286094 204.84402069 89.82449382 204.84567835 86.55574727 204.83996081 C83.81978425 204.83685972 81.08387228 204.84297161 78.34791654 204.84899956 C71.8899411 204.86302239 65.43209802 204.86150228 58.97412109 204.85009766 C52.32737831 204.83861855 45.68103912 204.85269335 39.0343495 204.87949413 C33.31265817 204.90169531 27.59109313 204.90827861 21.86936182 204.90241772 C18.4586221 204.89905744 15.04814103 204.90140074 11.63743782 204.91866875 C7.83171823 204.93357066 4.02688359 204.92290584 0.22119141 204.90576172 C-1.45840668 204.92026367 -1.45840668 204.92026367 -3.17193604 204.93505859 C-10.88128038 204.86245554 -16.24319405 203.66001045 -22.20092773 198.43920898 C-23.00916992 197.46274414 -23.00916992 197.46274414 -23.83374023 196.46655273 C-24.38803711 195.8181543 -24.94233398 195.16975586 -25.51342773 194.50170898 C-28.6980922 189.87964191 -29.2112087 185.92518823 -29.22616577 180.36479187 C-29.23069688 179.66787682 -29.235228 178.97096177 -29.23989642 178.25292808 C-29.25252954 175.92392189 -29.25092077 173.59514988 -29.24926758 171.26611328 C-29.25525354 169.59364522 -29.26205925 167.92117993 -29.2696228 166.24871826 C-29.28728382 161.70935097 -29.29197825 157.1700591 -29.29325438 152.63066077 C-29.29467656 149.79311639 -29.29894745 146.95559115 -29.30424881 144.11805153 C-29.32274994 134.21443084 -29.33091938 124.31086396 -29.3293457 114.40722656 C-29.32814452 105.18282704 -29.34924214 95.95866159 -29.38083303 86.7343213 C-29.40700603 78.80888447 -29.41771256 70.88352405 -29.41643488 62.95804435 C-29.41592552 58.22713575 -29.42159447 53.49643515 -29.44279099 48.76556969 C-29.46219044 44.31428066 -29.46228624 39.86339767 -29.44775772 35.41209412 C-29.44567059 33.7819236 -29.45036487 32.15172756 -29.46247864 30.52160072 C-29.5692181 15.15810999 -29.5692181 15.15810999 -24.95874023 8.40405273 C-17.29942592 0.74473842 -10.34031925 -0.04184488 0 0 Z " fill="#100F0D" transform="translate(1186.958740234375,1460.595947265625)"/>
<path d="M0 0 C1.02750366 -0.0071553 2.05500732 -0.01431061 3.11364746 -0.02168274 C4.80382744 -0.02571609 4.80382744 -0.02571609 6.52815247 -0.02983093 C7.71542938 -0.03640213 8.9027063 -0.04297333 10.1259613 -0.04974365 C14.06446184 -0.06949259 18.00294904 -0.08114585 21.94148254 -0.09111023 C23.29932996 -0.09515893 24.65717718 -0.09927589 26.01502419 -0.10346031 C32.3966294 -0.12250944 38.77822308 -0.13673959 45.15985125 -0.14507228 C52.51543306 -0.15483624 59.87071326 -0.18113455 67.22618884 -0.22157317 C72.91804954 -0.25178661 78.60982405 -0.26654619 84.30176336 -0.26985329 C87.69806866 -0.27219836 91.09405167 -0.28108666 94.49027061 -0.30631447 C98.28439186 -0.33066139 102.07772701 -0.32974825 105.87190247 -0.32279968 C106.98856796 -0.33560974 108.10523346 -0.3484198 109.2557373 -0.36161804 C116.37223617 -0.31417609 122.1784251 0.57168585 127.54196453 5.55915356 C132.2878522 10.89617649 133.50210595 15.60880034 133.33601379 22.58467102 C132.66168104 28.11419956 130.23264964 32.34698731 126.08601379 36.02217102 C120.19402568 40.1104893 115.62116723 40.43125761 108.64338684 40.3742218 C107.70631393 40.37451385 106.76924103 40.37480591 105.80377197 40.37510681 C102.71416382 40.37371626 99.62479844 40.35816787 96.53523254 40.34248352 C94.39003633 40.33875242 92.24483842 40.3359059 90.09963989 40.33390808 C84.45912453 40.32627931 78.81871251 40.30663723 73.17823792 40.28450012 C67.42029722 40.26402546 61.66233979 40.25490289 55.90437317 40.24482727 C44.61070072 40.22339068 33.31713202 40.18821461 22.02351379 40.14717102 C22.02351379 53.67717102 22.02351379 67.20717102 22.02351379 81.14717102 C27.89906067 81.07756165 33.77460754 81.00795227 39.82820129 80.93623352 C43.56522057 80.90555217 47.3020831 80.87666731 51.03913879 80.85420227 C56.96232112 80.81842591 62.88494346 80.77624433 68.80769348 80.6945343 C73.58640272 80.62902496 78.36451095 80.59339866 83.1436348 80.57790756 C84.96083657 80.56687758 86.77800789 80.54533867 88.59495163 80.51279068 C107.60118095 80.18606599 107.60118095 80.18606599 115.02351379 87.14717102 C119.1471576 92.30578498 120.82225252 97.09784021 120.44148254 103.72529602 C119.50183316 109.16999338 117.22034652 113.35789163 113.08601379 117.02217102 C107.66864363 120.78116256 103.34535729 121.4359529 96.83674622 121.3742218 C96.02646973 121.37451385 95.21619324 121.37480591 94.38136292 121.37510681 C91.71379235 121.37371792 89.04650408 121.35817754 86.37898254 121.34248352 C84.52524976 121.33875182 82.671515 121.33590559 80.81777954 121.33390808 C75.94664533 121.32628397 71.07563102 121.30664596 66.20454407 121.28450012 C60.35581693 121.26041166 54.50704963 121.25125489 48.65828705 121.23959351 C39.779946 121.22022088 30.90186784 121.18188976 22.02351379 121.14717102 C22.02351379 135.33717102 22.02351379 149.52717102 22.02351379 164.14717102 C28.93288879 164.10076477 35.84226379 164.05435852 42.96101379 164.00654602 C47.34514346 163.9861015 51.72921412 163.96684525 56.11335754 163.95185852 C63.06807197 163.9279717 70.02257521 163.89975042 76.97712708 163.84541321 C82.58572195 163.80186775 88.19409027 163.77801527 93.80284119 163.76766205 C95.93982 163.76028635 98.07678678 163.74588331 100.21366882 163.72425079 C103.2130538 163.69510166 106.21150937 163.69121989 109.21101379 163.69306946 C110.08927322 163.67868835 110.96753265 163.66430725 111.87240601 163.64949036 C118.6655314 163.69464801 123.97690305 165.40695566 129.08210754 169.99873352 C129.53714661 170.5839679 129.99218567 171.16920227 130.46101379 171.77217102 C130.93409973 172.36256165 131.40718567 172.95295227 131.89460754 173.56123352 C135.34277201 178.40536769 134.39281201 184.44046836 134.02351379 190.14717102 C132.34415476 195.58039141 128.65817938 199.00694862 124.02351379 202.14717102 C120.46952123 203.7981262 117.67678782 204.40003251 113.76855469 204.41459656 C112.21055397 204.42739151 112.21055397 204.42739151 110.62107849 204.44044495 C109.49213165 204.43953857 108.36318481 204.4386322 107.20002747 204.43769836 C106.00270493 204.44441559 104.80538239 204.45113281 103.57177734 204.45805359 C100.29474161 204.47378084 97.01785812 204.48040775 93.74078918 204.48168516 C91.69053744 204.48310918 89.64031208 204.48738354 87.59006691 204.4926796 C80.4291122 204.51117117 73.26823183 204.51935144 66.10725403 204.51777649 C59.44580079 204.51657581 52.78467193 204.53766555 46.12330073 204.56926382 C40.39317058 204.59547024 34.66314609 204.60614194 28.93295652 204.60486567 C25.51546236 204.60435725 22.09825652 204.60997331 18.68082237 204.63122177 C14.86533678 204.65084482 11.05068307 204.64505687 7.23518372 204.63301086 C6.11230957 204.64424988 4.98943542 204.65548889 3.83253479 204.66706848 C-4.30865915 204.60184591 -9.67468408 203.08210625 -15.78898621 197.64717102 C-21.06533635 191.61705657 -22.0928598 188.26735278 -22.13711548 180.19692993 C-22.1422033 179.49749132 -22.14729112 178.79805271 -22.15253311 178.07741898 C-22.16822802 175.73389098 -22.17677481 173.39039375 -22.18522644 171.04682922 C-22.19476728 169.36628017 -22.20465854 167.68573307 -22.21487427 166.00518799 C-22.24623206 160.48613305 -22.26652264 154.96706317 -22.28507996 149.44795227 C-22.28837728 148.50833893 -22.2916746 147.56872558 -22.29507184 146.6006391 C-22.32585065 137.73607634 -22.35255239 128.87151011 -22.36949062 120.00690937 C-22.3913946 108.67731716 -22.4333668 97.34819898 -22.5029282 86.01879627 C-22.55020552 78.04751834 -22.57442912 70.07636814 -22.58168751 62.10495442 C-22.58663793 57.34646685 -22.60166083 52.58851389 -22.64143181 47.83017921 C-22.67837788 43.35088638 -22.68668196 38.87243172 -22.67342567 34.39301491 C-22.67347949 32.75356183 -22.68372183 31.11407083 -22.70517731 29.47475815 C-22.80592962 21.33856384 -22.88202111 14.55793796 -17.67341709 7.820117 C-12.60582526 2.82415197 -7.13507619 0.03411121 0 0 Z " fill="#100F0D" transform="translate(998.9764862060547,1460.8528289794922)"/>
<path d="M0 0 C4.47615212 4.02276655 8.7064827 8.6375759 9.24609566 14.81917953 C9.24333028 16.46181463 9.24333028 16.46181463 9.24050903 18.13763428 C9.24325836 19.39684189 9.24600769 20.6560495 9.24884033 21.95341492 C9.24176251 23.34622288 9.23449289 24.73902988 9.22705078 26.13183594 C9.22648656 27.60038749 9.22680345 29.06893962 9.22793579 30.53749084 C9.22850987 34.52271348 9.21674667 38.50781585 9.20278788 42.49301052 C9.19028969 46.65835906 9.18911074 50.82371031 9.18673706 54.98907471 C9.18051961 62.87610402 9.16410521 70.76307792 9.14403808 78.65008283 C9.12168733 87.62944073 9.11068772 96.60880127 9.10064721 105.58818007 C9.07973922 124.05881813 9.04455808 142.52940461 9 161 C10.08470581 160.99111755 11.16941162 160.98223511 12.2869873 160.9730835 C22.52687306 160.89187295 32.76669316 160.83197474 43.00682831 160.79275131 C48.27096516 160.77190795 53.5348413 160.7436496 58.79882812 160.69824219 C63.88223318 160.65466865 68.965388 160.63083844 74.04896545 160.62049103 C75.9849898 160.61312031 77.92100099 160.59872702 79.85691833 160.57707977 C82.57613341 160.54789272 85.29432448 160.54405036 88.01367188 160.54589844 C88.80777466 160.53151733 89.60187744 160.51713623 90.42004395 160.50231934 C96.94022691 160.55003055 102.17484538 162.45896909 107.05859375 166.8515625 C107.51363281 167.43679688 107.96867187 168.02203125 108.4375 168.625 C108.91058594 169.21539063 109.38367187 169.80578125 109.87109375 170.4140625 C113.47315202 175.4743935 112.57913902 182.06545184 112 188 C110.07764322 193.23263921 106.66158673 196.96996863 102 200 C98.5707024 201.58247173 95.86875744 202.25305072 92.10017395 202.27415466 C91.14012451 202.28412979 90.18007507 202.29410492 89.19093323 202.30438232 C87.62846107 202.30537933 87.62846107 202.30537933 86.03442383 202.30639648 C84.92809601 202.31472 83.82176819 202.32304352 82.68191528 202.33161926 C79.0235848 202.35571837 75.36543271 202.3644922 71.70703125 202.37109375 C69.15980476 202.38006141 66.6125788 202.38918328 64.06535339 202.39845276 C58.72315868 202.41494599 53.38103061 202.42267615 48.03881836 202.42553711 C41.88401185 202.42916635 35.72970583 202.45902105 29.57505208 202.50094169 C23.63503369 202.53996747 17.69516384 202.55113267 11.7550106 202.55226326 C9.23731464 202.55645977 6.71961802 202.56887098 4.20200539 202.58978081 C0.67174922 202.61676252 -2.85714309 202.61184765 -6.38745117 202.59936523 C-7.93474159 202.62161667 -7.93474159 202.62161667 -9.51329041 202.64431763 C-16.60706909 202.5732185 -22.09910863 201.03705261 -28 197 C-34.28662404 190.57445644 -36.23994984 183.81671857 -36.27415466 174.84757996 C-36.27939134 174.16261784 -36.28462802 173.47765573 -36.29002339 172.77193719 C-36.3049281 170.49527723 -36.30572641 168.21884391 -36.30639648 165.94213867 C-36.31402435 164.30217616 -36.32245292 162.66221721 -36.33161926 161.02226257 C-36.3535081 156.57999158 -36.36235548 152.13778939 -36.36744571 147.69547057 C-36.37109564 144.91652794 -36.37733898 142.13760317 -36.3844471 139.35866737 C-36.40892117 129.65373573 -36.42198927 119.9488574 -36.42553711 110.24389648 C-36.42917176 101.21371356 -36.4590673 92.18387064 -36.50094169 83.15379161 C-36.53568821 75.38709233 -36.5510863 67.62050551 -36.55178314 59.85372907 C-36.55257441 55.2210965 -36.56124378 50.58881065 -36.58978081 45.95625877 C-36.61603677 41.59679803 -36.61812502 37.23796966 -36.60212517 32.87846565 C-36.6003167 31.28460175 -36.60694676 29.69070084 -36.62294388 28.0969162 C-36.70635703 19.24202153 -36.51925728 11.35917637 -31 4 C-21.63821683 -4.84209309 -11.30793691 -6.61928014 0 0 Z " fill="#12110F" transform="translate(2062,1463)"/>
<path d="M0 0 C6.41254154 3.52041549 10.45528927 8.00285406 12.8125 14.9375 C13.05859566 17.86410999 13.05859566 17.86410999 13.05300903 21.15742493 C13.05575836 22.40959305 13.05850769 23.66176117 13.06134033 24.95187378 C13.054263 26.33160497 13.04699339 27.71133518 13.03955078 29.09106445 C13.03898639 30.54991142 13.03930378 32.00875895 13.04043579 33.46760559 C13.0410092 37.42177877 13.02925679 41.37583041 13.01528788 45.32997537 C13.00277858 49.46462146 13.00160986 53.5992704 12.99923706 57.7339325 C12.99302288 65.5607216 12.97661289 73.38745478 12.95653808 81.21421927 C12.93417717 90.12588695 12.92318516 99.0375573 12.91314721 107.94924605 C12.89224662 126.27869573 12.85707183 144.60809337 12.8125 162.9375 C13.8949852 162.92639694 14.9774704 162.91529388 16.09275818 162.90385437 C26.31758153 162.80228914 36.54230191 162.72744391 46.76751614 162.67843914 C52.02385497 162.65239776 57.27978505 162.61709948 62.53588867 162.56030273 C67.61282912 162.50578826 72.68937755 162.47603843 77.76658821 162.46311378 C79.69901763 162.45390874 81.63142673 162.43593339 83.56368828 162.40884972 C103.23661627 162.14418706 103.23661627 162.14418706 109.8125 167.9375 C114.19124983 172.42852547 116.09691668 176.99069288 116.1875 183.25 C116.0548067 189.41194519 114.55421511 193.84023106 110.45703125 198.46875 C103.89775288 204.51805767 96.07884236 204.23846929 87.69580078 204.24389648 C86.59732819 204.25222 85.49885559 204.26054352 84.36709595 204.26911926 C80.74729842 204.29315229 77.12768127 204.30198268 73.5078125 204.30859375 C70.98346911 204.31756411 68.45912625 204.32668604 65.93478394 204.33595276 C60.64742408 204.35242639 55.36013143 204.36017289 50.07275391 204.36303711 C43.97923227 204.36667159 37.8862145 204.39657189 31.7928468 204.43844169 C25.90939567 204.47743766 20.02614307 204.48863197 14.14257431 204.48976326 C11.64917134 204.49396152 9.15576778 204.50637982 6.66244888 204.52728081 C3.17051885 204.55422697 -0.32002975 204.54935905 -3.81201172 204.53686523 C-5.34595581 204.55911667 -5.34595581 204.55911667 -6.91088867 204.58181763 C-14.38628534 204.5059056 -20.18084936 202.66029419 -25.74023247 197.49477291 C-30.57114693 192.03360874 -32.5603553 186.97913686 -32.58190918 179.74674988 C-32.58800028 179.04560242 -32.59409139 178.34445495 -32.60036707 177.6220606 C-32.61694825 175.2845758 -32.61222842 172.94763868 -32.60742188 170.61010742 C-32.61476515 168.92925961 -32.62335213 167.24841684 -32.63308716 165.56758118 C-32.65528688 161.00958156 -32.65823454 156.45176283 -32.65633965 151.89371657 C-32.65621985 148.08423936 -32.66478779 144.27480033 -32.67311716 140.46533376 C-32.6923464 131.47450318 -32.6952371 122.48376543 -32.68847656 113.49291992 C-32.68183879 104.22926287 -32.7046906 94.96600429 -32.74179029 85.70242804 C-32.77251924 77.73957631 -32.78384378 69.77685254 -32.77995348 61.81394273 C-32.77788896 57.06229894 -32.78331898 52.31096513 -32.80784607 47.55937767 C-32.830163 43.08828993 -32.82819452 38.61784822 -32.80791855 34.14675713 C-32.80451701 32.51055649 -32.8095606 30.87431195 -32.82390213 29.23817062 C-32.90213074 19.64789583 -32.59648922 11.82543504 -25.78023529 4.40562725 C-18.12516393 -2.59954256 -9.29120198 -4.22707838 0 0 Z " fill="#11100E" transform="translate(1892.1875,1461.0625)"/>
<path d="M0 0 C9.59895349 8.10771336 17.1466906 19.01863622 18.265625 31.82421875 C18.33330078 32.93216797 18.33330078 32.93216797 18.40234375 34.0625 C18.47839844 34.93519531 18.55445313 35.80789063 18.6328125 36.70703125 C19.26098461 49.38931679 14.78063499 61.54247769 6.40234375 71.0625 C1.32537519 76.32242239 -3.8233207 80.29910768 -10.59765625 83.0625 C-11.27957031 83.34867188 -11.96148438 83.63484375 -12.6640625 83.9296875 C-24.14585478 88.50497475 -35.98815026 88.11444523 -47.59765625 84.0625 C-62.3074293 77.47516438 -70.59176135 67.7723087 -76.65234375 52.921875 C-80.89656864 40.08397161 -78.81824482 27.84263633 -73.08984375 15.92578125 C-66.08764901 2.94729471 -55.76495016 -3.582836 -42.34375 -8.81640625 C-28.12142815 -13.06231862 -11.62246836 -8.66878843 0 0 Z " fill="#010101" transform="translate(1257.59765625,872.9375)"/>
<path d="M0 0 C10.5172693 8.00870581 17.82350931 18.08227119 21 31 C21.18360369 33.67305375 21.28785856 36.20950071 21.25 38.875 C21.24178223 39.58043945 21.23356445 40.28587891 21.22509766 41.01269531 C20.93353061 54.62542785 15.95819191 65.84254981 6.48828125 75.7421875 C-4.24858105 85.48458375 -16.38610425 89.43714382 -30.71484375 89.27734375 C-44.20284613 88.138642 -55.42620178 81.51724641 -64.6640625 71.9296875 C-74.95748889 59.01987179 -76.37944821 45.00041004 -75 29 C-73.17537008 21.27678197 -69.19785707 14.9173695 -64 9 C-63.17435547 8.00033203 -63.17435547 8.00033203 -62.33203125 6.98046875 C-46.3621899 -10.82811766 -19.67417209 -12.45514517 0 0 Z " fill="#010100" transform="translate(1545,871)"/>
<path d="M0 0 C7.73942618 -0.06316944 15.47790122 -0.12324352 23.21736145 -0.15525055 C26.82259318 -0.17099529 30.42760818 -0.19198205 34.03271484 -0.22631836 C37.5146215 -0.25926816 40.99631996 -0.2769267 44.47837067 -0.28463173 C46.43232601 -0.29275243 48.38619931 -0.31611272 50.34002686 -0.33988953 C60.12048389 -0.34170553 71.39450787 0.11884045 79 7 C83.27571117 11.6518154 85.39914044 15.68196742 85.625 22.0625 C85.23629544 28.57123372 83.98858186 33.32223065 79.046875 37.75 C69.66485666 44.57328607 59.5117474 44.28368984 48.33984375 44.1953125 C46.9402334 44.19157474 45.54062039 44.18873138 44.14100647 44.18673706 C40.48646613 44.17916061 36.83208892 44.15956486 33.1776123 44.1373291 C29.43679042 44.11674041 25.69594096 44.10759752 21.95507812 44.09765625 C14.63657546 44.07737777 7.31851867 44.03821681 0 44 C0 29.48 0 14.96 0 0 Z " fill="#FEFEFE" transform="translate(824,1581)"/>
<path d="M0 0 C7.22285779 -0.06910601 14.44455474 -0.12877155 21.66748047 -0.16479492 C24.12129619 -0.17982224 26.57508533 -0.2002498 29.02880859 -0.22631836 C32.56875192 -0.2629682 36.10833814 -0.27978755 39.6484375 -0.29296875 C41.277173 -0.31619453 41.277173 -0.31619453 42.93881226 -0.33988953 C52.20608592 -0.34190803 60.61692247 1.02322296 68 7 C72.24907814 11.82327789 73.16883217 14.33774109 73.25 20.75 C73.27578125 21.96171875 73.3015625 23.1734375 73.328125 24.421875 C72.85370995 29.59525817 71.07764301 32.80892088 67.625 36.625 C55.46797724 45.63756033 38.90296603 43.45771099 24.6875 43.25 C22.28972846 43.22990377 19.89194066 43.21165854 17.49414062 43.1953125 C11.66202485 43.15499369 5.83219957 43.07665542 0 43 C0 28.81 0 14.62 0 0 Z " fill="#FDFDFD" transform="translate(824,1500)"/>
<path d="M0 0 C5.11723237 3.70162416 9.76949207 7.52800154 11 14 C11.99758908 22.64955073 11.32814239 29.90008977 6 37 C0.19479061 42.7336873 -5.64786811 45.03446028 -13.75 45.4375 C-20.96777717 45.28526401 -26.74426788 43.28950527 -31.8828125 38.09765625 C-37.78528369 30.66966715 -38.97148469 23.34592869 -38 14 C-35.87431121 6.36279475 -30.43764599 2.0625876 -23.875 -1.875 C-16.40329676 -4.7149234 -6.76201755 -4.11024596 0 0 Z " fill="#171614" transform="translate(1588,1719)"/>
<path d="M0 0 C3.19084323 1.59542162 3.80952545 4.89138745 5.08984375 8.05859375 C5.39055786 8.78664215 5.69127197 9.51469055 6.00109863 10.26480103 C6.98615256 12.65318096 7.96187958 15.04525294 8.9375 17.4375 C9.9496908 19.90065399 10.9640104 22.36292379 11.97853088 24.82511902 C12.66130596 26.48252358 13.34329869 28.14025064 14.02452087 29.79829407 C16.12524957 34.90517314 18.26024549 39.99560609 20.4375 45.0703125 C20.94804932 46.26213135 21.45859863 47.4539502 21.98461914 48.68188477 C22.93572489 50.89495169 23.89050059 53.10644585 24.84936523 55.31616211 C25.47887085 56.78581421 25.47887085 56.78581421 26.12109375 58.28515625 C26.4864624 59.12957275 26.85183105 59.97398926 27.22827148 60.84399414 C28 63 28 63 28 66 C9.85 66 -8.3 66 -27 66 C-26.27801276 62.39006379 -25.64508411 59.83332248 -24.25341797 56.55541992 C-23.89569305 55.70650681 -23.53796814 54.85759369 -23.16940308 53.98295593 C-22.78092194 53.07463516 -22.3924408 52.16631439 -21.9921875 51.23046875 C-21.58847931 50.27666824 -21.18477112 49.32286774 -20.76882935 48.34016418 C-19.47528967 45.28738628 -18.17513848 42.23747249 -16.875 39.1875 C-16.02302543 37.17790903 -15.17145886 35.16814502 -14.3203125 33.15820312 C-9.61985474 22.07320098 -4.8586402 11.01659097 0 0 Z " fill="#FCFCFC" transform="translate(1737,1513)"/>
<path d="M0 0 C5.01162998 2.95291061 9.03508065 6.16665617 11.3828125 11.546875 C11.6303125 12.8153125 11.6303125 12.8153125 11.8828125 14.109375 C1.69846646 14.74150682 1.69846646 14.74150682 -1.6171875 12.171875 C-2.1121875 11.49125 -2.6071875 10.810625 -3.1171875 10.109375 C-7.73788816 8.56914145 -12.29736828 8.4540487 -17.1171875 9.109375 C-20.26941325 11.33928029 -20.26941325 11.33928029 -22.1171875 14.109375 C-22.4471875 14.439375 -22.7771875 14.769375 -23.1171875 15.109375 C-23.24354173 17.18981213 -23.29300455 19.27513712 -23.3046875 21.359375 C-23.32595703 23.06867188 -23.32595703 23.06867188 -23.34765625 24.8125 C-23.12081511 28.05748179 -22.59998473 30.23222809 -21.1171875 33.109375 C-16.76949252 35.96254983 -11.12985342 35.77399364 -6.1171875 35.109375 C-1.35280936 32.71204459 -1.35280936 32.71204459 0.8828125 28.109375 C-6.0471875 27.614375 -6.0471875 27.614375 -13.1171875 27.109375 C-13.1171875 24.469375 -13.1171875 21.829375 -13.1171875 19.109375 C-4.5371875 19.109375 4.0428125 19.109375 12.8828125 19.109375 C12.8828125 27.70419524 11.70886502 34.23081474 5.6640625 40.6015625 C-0.20089391 45.56619666 -6.55063371 46.83847903 -14.1171875 46.55859375 C-20.45718802 45.60924471 -25.92297357 42.87558658 -30.1171875 37.984375 C-35.29654761 30.53904484 -35.92618172 24.11383245 -35.1171875 15.109375 C-33.35529729 8.46581448 -28.66458376 3.93160334 -23.1171875 0.109375 C-16.14198104 -3.32124125 -7.0983181 -3.14820803 0 0 Z " fill="#171614" transform="translate(1943.1171875,1717.890625)"/>
<path d="M0 0 C3.3 0 6.6 0 10 0 C12.71065591 2.74813042 14.32907707 4.77521038 16.25 8 C17.21235863 9.50075928 18.17589799 11.00076208 19.140625 12.5 C19.54829102 13.1703125 19.95595703 13.840625 20.37597656 14.53125 C22.74845762 18.13776359 25.40986132 21.54648176 28 25 C28.33 16.75 28.66 8.5 29 0 C32.63 0 36.26 0 40 0 C40 15.18 40 30.36 40 46 C31 46 31 46 28.79296875 44.41015625 C28.26316406 43.63542969 27.73335937 42.86070313 27.1875 42.0625 C26.55199219 41.16917969 25.91648437 40.27585937 25.26171875 39.35546875 C24.91415527 38.83774902 24.5665918 38.3200293 24.20849609 37.78662109 C22.29746748 34.96138727 20.29701259 32.2003513 18.31176758 29.42700195 C15.85435175 25.96555907 13.43066941 22.48027666 11 19 C10.67 27.91 10.34 36.82 10 46 C6.7 46 3.4 46 0 46 C0 30.82 0 15.64 0 0 Z " fill="#161513" transform="translate(1831,1717)"/>
<path d="M0 0 C3.96 -0.103125 7.92 -0.20625 12 -0.3125 C13.84851562 -0.38078003 13.84851562 -0.38078003 15.734375 -0.45043945 C22.7420513 -0.53837581 27.70402223 0.17591605 33 5 C36.51606334 9.20607473 37.71562551 13.2382706 37.453125 18.72265625 C36.41903812 23.91983429 33.61055089 27.7822664 29.4375 30.9375 C23.3495079 33.59124015 17.57672769 33.07148617 11 33 C11 37.29 11 41.58 11 46 C7.37 46 3.74 46 0 46 C0 30.82 0 15.64 0 0 Z " fill="#181715" transform="translate(1636,1717)"/>
<path d="M0 0 C3.96 -0.103125 7.92 -0.20625 12 -0.3125 C13.84851562 -0.38078003 13.84851562 -0.38078003 15.734375 -0.45043945 C22.7559889 -0.5385507 27.73199054 0.11401209 33 5 C36.6157407 9.48208649 36.50226918 13.48148421 36.3515625 19.05078125 C35.83308432 23.40023712 34.7123821 25.55454166 32 29 C25.46794786 33.89903911 18.87128415 33.08555744 11 33 C11 37.29 11 41.58 11 46 C7.37 46 3.74 46 0 46 C0 30.82 0 15.64 0 0 Z " fill="#141311" transform="translate(1140,1717)"/>
<path d="M0 0 C26.59541985 0 26.59541985 0 31.7421875 4.53515625 C36.02810348 10.31375331 36.60330256 13.87006071 36 21 C33.98543172 26.72561512 30.83543361 29.61686166 25.4375 32.25 C20.25925615 33.37979866 15.29441287 33.11765362 10 33 C10 37.29 10 41.58 10 46 C6.7 46 3.4 46 0 46 C0 30.82 0 15.64 0 0 Z " fill="#12110F" transform="translate(1709,1717)"/>
<path d="M0 0 C26.59541985 0 26.59541985 0 31.7421875 4.53515625 C36.02810348 10.31375331 36.60330256 13.87006071 36 21 C33.98543172 26.72561512 30.83543361 29.61686166 25.4375 32.25 C20.25925615 33.37979866 15.29441287 33.11765362 10 33 C10 37.29 10 41.58 10 46 C6.7 46 3.4 46 0 46 C0 30.82 0 15.64 0 0 Z " fill="#12110F" transform="translate(1213,1717)"/>
<path d="M0 0 C3.63 0 7.26 0 11 0 C13.74923868 5.36116591 16.21868279 10.73879486 18.453125 16.33203125 C18.75820984 17.09045822 19.06329468 17.84888519 19.37762451 18.6302948 C20.01456158 20.21694213 20.64973738 21.80429755 21.28320312 23.39233398 C22.25539166 25.82599686 23.23678348 28.25581546 24.21875 30.68554688 C24.83909994 32.23415148 25.45891116 33.78297202 26.078125 35.33203125 C26.51865204 36.41953423 26.51865204 36.41953423 26.96807861 37.52900696 C28.14697854 40.50372003 29 42.76929291 29 46 C25.37 46 21.74 46 18 46 C17.01 43.69 16.02 41.38 15 39 C8.73 38.67 2.46 38.34 -4 38 C-4.495 40.475 -4.495 40.475 -5 43 C-5.33 43.99 -5.66 44.98 -6 46 C-9.63 46 -13.26 46 -17 46 C-16.37095597 40.47535245 -14.48661933 35.76555974 -12.40234375 30.6640625 C-11.87176109 29.34503433 -11.87176109 29.34503433 -11.33045959 27.99935913 C-10.20514321 25.20557833 -9.07145824 22.41528282 -7.9375 19.625 C-7.17066822 17.72548467 -6.40438604 15.82574737 -5.63867188 13.92578125 C-3.76547015 9.28125924 -1.88475833 4.63984365 0 0 Z " fill="#141412" transform="translate(1076,1717)"/>
<path d="M0 0 C3.3 0 6.6 0 10 0 C10 5.94 10 11.88 10 18 C16.27 18 22.54 18 29 18 C29 12.06 29 6.12 29 0 C32.3 0 35.6 0 39 0 C39 15.18 39 30.36 39 46 C35.7 46 32.4 46 29 46 C29 39.73 29 33.46 29 27 C22.73 27 16.46 27 10 27 C10 33.27 10 39.54 10 46 C6.7 46 3.4 46 0 46 C0 30.82 0 15.64 0 0 Z " fill="#100F0D" transform="translate(1474,1717)"/>
<path d="M0 0 C3.3 0 6.6 0 10 0 C10 5.94 10 11.88 10 18 C16.27 18 22.54 18 29 18 C29 12.06 29 6.12 29 0 C32.3 0 35.6 0 39 0 C39 15.18 39 30.36 39 46 C35.7 46 32.4 46 29 46 C29 39.73 29 33.46 29 27 C22.73 27 16.46 27 10 27 C10 33.27 10 39.54 10 46 C6.7 46 3.4 46 0 46 C0 30.82 0 15.64 0 0 Z " fill="#100F0D" transform="translate(985,1717)"/>
<path d="M0 0 C3.0832431 2.02938633 5.25204445 4.72247701 6.69140625 8.11328125 C6.81640625 10.83984375 6.81640625 10.83984375 6.69140625 13.11328125 C3.31458734 13.39837853 0.05596262 13.58134556 -3.30859375 13.11328125 C-4.30859375 11.44661458 -5.30859375 9.77994792 -6.30859375 8.11328125 C-9.67315012 7.64521694 -12.93177484 7.82818397 -16.30859375 8.11328125 C-16.63859375 9.76328125 -16.96859375 11.41328125 -17.30859375 13.11328125 C-14.06121057 15.91819859 -11.12340811 16.86364042 -6.99609375 17.92578125 C-1.0145657 19.66843115 2.40172349 21.62861291 6.69140625 26.11328125 C8.3043381 29.33914494 8.13510199 32.61591483 7.69140625 36.11328125 C5.41237351 41.26587702 2.3409717 43.42665037 -2.74609375 45.41796875 C-8.89552667 47.08656488 -14.89981591 47.08811967 -20.74609375 44.42578125 C-24.07634216 42.4740373 -26.34079938 40.49788756 -28.30859375 37.11328125 C-29.05859375 33.30078125 -29.05859375 33.30078125 -29.30859375 30.11328125 C-25.67859375 30.11328125 -22.04859375 30.11328125 -18.30859375 30.11328125 C-17.64859375 31.76328125 -16.98859375 33.41328125 -16.30859375 35.11328125 C-14.06347113 36.23584256 -12.79402726 36.24741887 -10.30859375 36.23828125 C-9.60734375 36.24085937 -8.90609375 36.2434375 -8.18359375 36.24609375 C-6.217056 36.22705361 -6.217056 36.22705361 -4.30859375 35.11328125 C-4.30859375 33.46328125 -4.30859375 31.81328125 -4.30859375 30.11328125 C-8.23386788 27.9325734 -12.06760301 26.54365575 -16.37109375 25.23828125 C-21.34032527 23.62913804 -24.19054422 22.30652028 -27.30859375 18.11328125 C-29.06933963 12.83104361 -29.10485179 8.73642264 -26.68359375 3.80078125 C-20.07233329 -3.6803819 -8.88380531 -3.91332551 0 0 Z " fill="#181715" transform="translate(1429.30859375,1717.88671875)"/>
<path d="M0 0 C3.96 0 7.92 0 12 0 C14.97 5.61 17.94 11.22 21 17 C23.64126788 13.47830949 25.63406588 10.124404 27.6875 6.25 C28.00783203 5.64800781 28.32816406 5.04601563 28.65820312 4.42578125 C29.4418167 2.95211989 30.22132733 1.47627806 31 0 C34.96 0 38.92 0 43 0 C41.49088526 3.77278685 40.14126839 6.54239444 37.99609375 9.88671875 C30.43422725 22.10480799 25.89515595 31.49212982 27 46 C23.37 46 19.74 46 16 46 C16.06703125 45.02804687 16.1340625 44.05609375 16.203125 43.0546875 C16.59439959 27.91795064 9.16194218 16.78819412 1.31982422 4.33105469 C0 2 0 2 0 0 Z " fill="#161514" transform="translate(1281,1717)"/>
<path d="M0 0 C3.49029792 1.97277708 6.19844633 4.39689265 8 8 C8.52383318 13.25550671 8.61997842 17.66466186 6.375 22.5 C2.7053959 26.36274116 -0.69489499 28.12364837 -6 28.4375 C-10.24630623 28.25887909 -12.76068611 26.7873166 -16 24 C-19.55182811 20.09298908 -19.61271062 15.81063894 -19.49609375 10.734375 C-18.7051922 6.37507512 -16.35733934 3.76589096 -13 1 C-9.00469193 -0.99765403 -4.33153639 -0.64943255 0 0 Z " fill="#FBFBFB" transform="translate(1580,1726)"/>
<path d="M0 0 C3.63 0 7.26 0 11 0 C11 15.18 11 30.36 11 46 C7.37 46 3.74 46 0 46 C0 30.82 0 15.64 0 0 Z " fill="#1B1A18" transform="translate(1781,1717)"/>
<path d="M0 0 C10.04995766 -0.48433531 10.04995766 -0.48433531 14.1875 1.625 C16 4 16 4 16.625 6.9375 C15.74750813 11.23721018 14.66656378 12.55562415 11 15 C7.22851721 15.41846508 3.81542502 15.22984488 0 15 C0 10.05 0 5.1 0 0 Z " fill="#F2F2F2" transform="translate(1150,1726)"/>
<path d="M0 0 C1.5675 -0.04125 3.135 -0.0825 4.75 -0.125 C5.63171875 -0.14820313 6.5134375 -0.17140625 7.421875 -0.1953125 C10.14906426 0.01129275 11.71315408 0.52694159 14 2 C15.54586876 5.09173752 15.29359521 7.59429552 15 11 C13.6875 13.4375 13.6875 13.4375 11 15 C7.26598404 15.32773378 3.7630972 15.1791951 0 15 C0 10.05 0 5.1 0 0 Z " fill="#FBFBFB" transform="translate(1719,1726)"/>
<path d="M0 0 C1.5675 -0.04125 3.135 -0.0825 4.75 -0.125 C5.63171875 -0.14820313 6.5134375 -0.17140625 7.421875 -0.1953125 C10.14906426 0.01129275 11.71315408 0.52694159 14 2 C15.54586876 5.09173752 15.29359521 7.59429552 15 11 C13.6875 13.4375 13.6875 13.4375 11 15 C7.26598404 15.32773378 3.7630972 15.1791951 0 15 C0 10.05 0 5.1 0 0 Z " fill="#FBFBFB" transform="translate(1223,1726)"/>
<path d="M0 0 C9.03614458 -0.48192771 9.03614458 -0.48192771 13.125 1.5625 C15 4 15 4 15.5625 7.5 C15 11 15 11 13.6875 13.4375 C9.27648594 16.00204306 5.03163219 15.23960153 0 15 C0 10.05 0 5.1 0 0 Z " fill="#FBFBFB" transform="translate(1647,1726)"/>
<path d="M0 0 C0.66 0 1.32 0 2 0 C2.8394882 2.10171867 3.67139656 4.20646625 4.5 6.3125 C4.9640625 7.48425781 5.428125 8.65601563 5.90625 9.86328125 C7 13 7 13 7 16 C3.04 16 -0.92 16 -5 16 C-4.39363767 10.23955788 -2.24341721 5.27985631 0 0 Z " fill="#EBEBEB" transform="translate(1081,1731)"/>
</svg>
