<?xml version="1.0" standalone="no"?>
<!DOCTYPE svg PUBLIC "-//W3C//DTD SVG 20010904//EN"
 "http://www.w3.org/TR/2001/REC-SVG-20010904/DTD/svg10.dtd">
<svg version="1.0" xmlns="http://www.w3.org/2000/svg"
 width="2938.000000pt" height="2463.000000pt" viewBox="0 0 2938.000000 2463.000000"
 preserveAspectRatio="xMidYMid meet">

<g transform="translate(0.000000,2463.000000) scale(0.100000,-0.100000)"
fill="#000000" stroke="none">
<path d="M12173 15985 c-242 -53 -410 -294 -374 -535 32 -213 198 -379 411
-411 138 -21 289 26 395 125 201 186 206 496 11 690 -71 71 -143 110 -241 131
-84 18 -120 18 -202 0z"/>
<path d="M15066 15984 c-128 -31 -254 -129 -316 -245 -154 -289 28 -646 358
-701 149 -25 297 26 413 141 96 97 139 199 139 330 0 142 -52 264 -152 357
-125 115 -281 157 -442 118z"/>
<path d="M16069 14190 c-142 -24 -244 -148 -243 -295 0 -70 9 -97 59 -181 19
-31 19 -34 -3 -168 -137 -830 -740 -1507 -1552 -1741 -217 -62 -346 -79 -610
-79 -202 -1 -253 3 -365 23 -450 80 -855 291 -1175 612 -333 334 -548 761
-615 1223 -14 94 -14 111 -2 125 43 48 62 106 62 186 0 95 -21 149 -81 209
-60 60 -125 86 -215 86 -90 0 -157 -28 -214 -92 -56 -61 -75 -111 -75 -198 0
-87 26 -156 82 -211 31 -32 34 -41 46 -134 67 -537 332 -1073 722 -1466 147
-147 248 -231 421 -345 311 -206 676 -344 1058 -401 142 -21 546 -24 691 -5
259 35 536 118 785 236 251 120 466 270 678 476 228 220 382 432 522 715 128
259 203 499 241 770 15 111 19 123 49 155 52 55 77 113 82 188 14 195 -152
344 -348 312z"/>
<path d="M17255 10026 c-102 -47 -99 -41 -506 -958 -362 -816 -374 -845 -374
-905 0 -52 5 -68 31 -105 69 -99 196 -123 294 -56 50 34 64 58 148 253 l78
180 450 0 449 0 76 -176 c87 -200 106 -230 169 -267 94 -56 230 -22 284 71 32
55 40 104 26 157 -13 48 -694 1592 -742 1683 -54 101 -136 147 -262 147 -53 0
-83 -6 -121 -24z m263 -856 c73 -173 132 -321 132 -328 0 -9 -63 -12 -275 -12
-214 0 -275 3 -275 13 0 6 35 95 78 197 43 102 105 247 137 323 32 76 61 135
65 130 4 -4 66 -150 138 -323z"/>
<path d="M18767 10026 c-81 -22 -136 -77 -157 -157 -7 -25 -9 -331 -8 -881 l3
-843 22 -41 c27 -51 69 -87 125 -108 38 -15 106 -16 620 -14 l576 3 43 30
c129 91 118 279 -22 349 l-53 26 -433 0 -433 0 0 726 c0 544 -3 737 -12 767
-18 61 -82 122 -147 141 -63 19 -61 19 -124 2z"/>
<path d="M20435 10029 c-86 -21 -148 -88 -165 -178 -14 -73 -14 -1609 0 -1682
14 -70 49 -121 107 -156 l48 -28 568 -3 c376 -2 581 1 607 8 154 42 195 258
67 354 -61 44 -78 46 -528 46 l-429 0 0 735 c0 642 -2 740 -16 773 -41 99
-154 156 -259 131z"/>
<path d="M14260 10014 c-45 -20 -86 -59 -113 -109 -22 -40 -22 -41 -25 -889
-3 -963 -6 -922 71 -993 102 -94 269 -70 338 50 l24 42 5 538 5 538 189 -293
c214 -331 223 -343 279 -380 55 -38 141 -39 203 -3 51 30 73 60 305 420 l174
270 5 -551 5 -551 28 -36 c67 -88 150 -119 246 -91 67 19 134 82 150 141 7 25
11 323 11 886 0 935 3 886 -63 956 -48 50 -100 71 -181 71 -92 0 -143 -17
-186 -61 -19 -20 -158 -238 -309 -483 -151 -245 -277 -446 -280 -446 -3 0
-127 199 -276 442 -148 243 -287 459 -308 479 -20 20 -52 44 -71 53 -44 21
-178 21 -226 0z"/>
<path d="M7940 9999 c-56 -25 -86 -53 -113 -104 l-22 -40 0 -855 0 -855 22
-42 c25 -46 69 -84 126 -108 51 -21 848 -22 1009 0 308 41 502 184 557 409 15
63 15 220 0 282 -23 93 -49 136 -122 208 -52 51 -95 83 -155 113 l-83 41 44
31 c68 46 142 127 170 184 66 136 64 324 -5 461 -55 110 -158 192 -303 243
-132 45 -226 53 -670 53 -391 0 -412 -1 -455 -21z m905 -397 c70 -32 103 -68
121 -129 21 -73 6 -148 -39 -190 -76 -72 -130 -84 -434 -90 l-253 -6 0 223 0
222 278 -4 c264 -3 279 -4 327 -26z m113 -811 c95 -43 139 -118 129 -219 -12
-115 -91 -175 -253 -192 -49 -5 -203 -10 -341 -10 l-253 0 0 226 0 225 333 -3
c325 -3 333 -4 385 -27z"/>
<path d="M9918 10006 c-57 -20 -85 -42 -116 -88 l-27 -42 -3 -855 c-2 -580 0
-868 8 -892 5 -20 28 -55 50 -77 74 -73 60 -72 729 -72 385 0 609 4 634 11 47
13 106 63 123 106 17 39 18 121 3 160 -15 40 -57 82 -104 104 -37 17 -74 19
-522 19 l-483 0 0 215 0 215 413 0 c408 0 413 0 457 23 59 29 99 87 107 154
11 94 -53 186 -148 213 -19 6 -204 10 -431 10 l-398 0 0 205 0 204 489 3 489
3 43 30 c125 88 115 271 -20 342 l-44 23 -606 0 c-479 -1 -614 -4 -643 -14z"/>
<path d="M11740 10011 c-54 -17 -90 -43 -122 -89 l-33 -47 -3 -855 c-3 -952
-6 -903 66 -973 70 -68 57 -67 721 -67 385 0 609 4 634 11 43 12 102 59 121
98 50 98 11 216 -88 266 l-50 25 -483 0 -483 0 0 215 0 215 413 0 c378 0 415
2 452 19 151 68 153 280 4 355 l-53 26 -408 0 -408 0 0 205 0 205 468 0 c290
0 481 4 504 10 108 30 167 160 123 268 -21 49 -52 81 -100 103 -38 17 -77 19
-645 18 -333 0 -616 -4 -630 -8z"/>
<path d="M14083 7451 c-49 -23 -73 -62 -73 -122 0 -59 55 -112 135 -130 75
-17 115 -42 115 -74 0 -29 -25 -45 -72 -45 -41 0 -78 24 -78 51 0 16 -7 19
-50 19 -48 0 -50 -1 -50 -27 0 -77 74 -127 185 -128 83 0 130 22 158 75 45 86
-6 162 -135 200 -78 24 -108 43 -108 70 0 27 26 43 70 43 42 0 80 -24 80 -50
0 -9 15 -13 51 -13 l52 0 -6 30 c-10 46 -35 77 -81 100 -54 26 -136 26 -193 1z"/>
<path d="M15670 7461 c-114 -35 -178 -131 -167 -251 10 -113 77 -189 189 -212
191 -40 343 125 287 313 -35 115 -184 188 -309 150z m178 -136 c33 -36 34 -39
30 -102 -4 -58 -8 -69 -36 -94 -63 -56 -164 -47 -209 20 -34 50 -32 129 4 171
35 42 57 50 122 46 48 -3 58 -7 89 -41z"/>
<path d="M19232 7457 c-54 -20 -103 -67 -129 -125 -21 -45 -25 -65 -21 -116 9
-110 65 -182 164 -212 64 -19 103 -18 168 7 83 31 133 99 143 195 l6 54 -132
0 -131 0 0 -40 0 -40 75 0 c41 0 75 -3 75 -8 0 -4 -7 -18 -16 -30 -48 -68
-168 -70 -221 -2 -41 50 -35 149 11 195 50 50 143 50 195 1 22 -21 37 -26 79
-26 29 0 52 2 52 5 0 40 -89 126 -149 143 -48 15 -126 14 -169 -1z"/>
<path d="M9850 7230 l0 -230 50 0 49 0 3 93 3 92 88 3 87 3 0 -96 0 -95 55 0
55 0 0 230 0 230 -55 0 -55 0 0 -90 0 -91 -87 3 -88 3 -3 88 -3 87 -49 0 -50
0 0 -230z"/>
<path d="M10680 7244 c-47 -120 -86 -223 -88 -231 -3 -10 11 -13 52 -13 l55 0
12 40 12 40 94 0 93 0 16 -40 c16 -40 16 -40 71 -40 47 0 54 2 49 18 -3 9 -44
112 -90 227 l-83 210 -54 3 -54 3 -85 -217z m173 3 c15 -41 27 -77 27 -80 0
-4 -27 -7 -60 -7 -33 0 -60 3 -60 8 0 15 53 152 59 152 4 0 19 -33 34 -73z"/>
<path d="M11400 7230 l0 -230 55 0 55 0 0 64 0 63 73 5 c121 8 169 50 175 155
5 77 -19 122 -82 152 -35 18 -61 21 -159 21 l-117 0 0 -230z m235 115 c14 -13
25 -36 25 -50 0 -14 -11 -37 -25 -50 -20 -21 -34 -25 -80 -25 l-55 0 0 75 0
75 55 0 c46 0 60 -4 80 -25z"/>
<path d="M12130 7231 l0 -231 50 0 50 0 0 65 0 65 63 0 c73 0 138 28 171 73
30 40 30 144 0 183 -46 62 -65 69 -205 73 l-129 3 0 -231z m230 119 c12 -12
20 -33 20 -55 0 -53 -28 -75 -95 -75 l-55 0 0 75 0 75 55 0 c42 0 60 -5 75
-20z"/>
<path d="M12810 7455 c0 -4 36 -70 80 -149 l80 -142 0 -82 0 -82 55 0 55 0 0
85 0 85 80 141 c44 78 80 143 80 145 0 2 -26 4 -57 4 l-58 0 -48 -91 c-29 -54
-52 -88 -58 -82 -5 5 -28 45 -51 88 l-43 80 -58 3 c-31 2 -57 0 -57 -3z"/>
<path d="M14740 7230 l0 -230 55 0 55 0 0 95 0 96 88 -3 87 -3 3 -92 3 -93 49
0 50 0 0 230 0 230 -50 0 -49 0 -3 -87 -3 -88 -87 -3 -88 -3 0 91 0 90 -55 0
-55 0 0 -230z"/>
<path d="M16360 7230 l0 -230 55 0 55 0 0 65 0 65 63 0 c119 0 191 62 191 165
0 67 -27 114 -84 143 -38 19 -60 22 -162 22 l-118 0 0 -230z m237 118 c15 -14
23 -33 23 -54 0 -46 -38 -74 -101 -74 l-49 0 0 75 0 75 52 0 c39 0 57 -5 75
-22z"/>
<path d="M17090 7231 l0 -231 50 0 50 0 0 65 0 65 63 0 c73 0 138 28 171 73
30 40 30 144 0 183 -46 62 -65 69 -205 73 l-129 3 0 -231z m230 119 c12 -12
20 -33 20 -55 0 -53 -28 -75 -95 -75 l-55 0 0 75 0 75 55 0 c42 0 60 -5 75
-20z"/>
<path d="M17810 7230 l0 -230 55 0 55 0 0 230 0 230 -55 0 -55 0 0 -230z"/>
<path d="M18310 7230 l0 -230 50 0 49 0 3 142 3 142 101 -139 100 -140 47 -3
47 -3 0 230 0 231 -55 0 -54 0 -3 -134 -3 -134 -95 133 -95 134 -47 0 -48 1 0
-230z"/>
</g>
</svg>
