<?xml version="1.0" encoding="UTF-8"?>
<!DOCTYPE svg PUBLIC "-//W3C//DTD SVG 1.1//EN" "http://www.w3.org/Graphics/SVG/1.1/DTD/svg11.dtd">
<!-- Creator: CorelDRAW 2021 (64-Bit) -->
<svg xmlns="http://www.w3.org/2000/svg" xml:space="preserve" width="512" height="512" version="1.1" style="shape-rendering:geometricPrecision; text-rendering:geometricPrecision; image-rendering:optimizeQuality; fill-rule:evenodd; clip-rule:evenodd"
viewBox="0 0 6929.13 9842.52"
 xmlns:xlink="http://www.w3.org/1999/xlink"
 xmlns:xodm="http://www.corel.com/coreldraw/odm/2003">
 <defs>
  <style type="text/css">
   <![CDATA[
    .str1 {stroke:#373435;stroke-width:6.94;stroke-miterlimit:2.61313}
    .str0 {stroke:#FFCC29;stroke-width:6.94;stroke-miterlimit:2.61313}
    .fil6 {fill:none}
    .fil1 {fill:none;fill-rule:nonzero}
    .fil2 {fill:#F9C92C}
    .fil5 {fill:#201E1E}
    .fil3 {fill:#201E1E;fill-rule:nonzero}
    .fil4 {fill:#201E1E;fill-rule:nonzero}
    .fil0 {fill:#FBC926;fill-rule:nonzero}
   ]]>
  </style>
    <clipPath id="id0" style="clip-rule:nonzero">
     <path d="M3231.25 3942.5l976.13 0 0 1136.67 -976.13 0 0 -1136.67zm0 0z"/>
    </clipPath>
 </defs>
 <g id="Layer_x0020_1">
  <metadata id="CorelCorpID_0Corel-Layer"/>
  <g id="_2427531069792">
   <g>
   </g>
   <g style="clip-path:url(#id0)">
    <g id="_2427531090000">
     <path class="fil0" d="M3948.13 3942.66l-447.67 0c-143.22,0 -259.25,116.41 -259.25,259.95l0 616.45c0,143.59 116.03,259.95 259.19,259.95l447.67 0c143.21,0 259.25,-116.36 259.25,-259.95l0 -616.45c0.06,-143.54 -115.98,-259.95 -259.19,-259.95zm0 0z"/>
    </g>
   </g>
   <path class="fil1" d="M3231.25 3942.5l976.13 0 0 1136.67 -976.13 0 0 -1136.67zm0 0z"/>
   <path class="fil2" d="M3508.63 3938.97l436.05 0c140.76,0 255.93,115.17 255.93,255.93l0 666.71c0,114.7 -93.84,208.54 -208.55,208.54l-518.2 0c-130.34,0 -236.98,-106.64 -236.98,-236.98l0 -622.47c0,-149.46 122.28,-271.74 271.74,-271.74z"/>
   <g id="_2427531069504">
    <path class="fil3" d="M1999.72 5653.47l0 -333.68c0,-13.02 4.57,-24.11 13.78,-33.15 9.15,-9.15 20.29,-13.78 33.37,-13.78l151.56 0c17.49,0 34.71,2.04 51.67,6.03 16.9,4.04 31.96,10.5 45.2,19.37 13.19,8.77 23.9,20.19 32.08,34.23 8.18,13.94 12.27,30.95 12.27,51.02l0 1.08c0,24.11 -5.54,43.48 -16.57,58.12 -10.92,14.64 -24.11,26.05 -39.61,34.23 24.81,9.37 44.35,22.12 58.56,38.32 14.31,16.09 21.53,38.32 21.53,66.74l0 1.3c0,19.53 -3.83,36.7 -11.41,51.45 -7.48,14.64 -18.24,26.85 -32.29,36.6 -14.1,9.8 -31,17.11 -50.81,21.96 -19.8,4.9 -41.7,7.32 -65.66,7.32l-156.51 0c-13.08,0 -24.22,-4.57 -33.37,-13.78 -9.2,-9.15 -13.78,-20.29 -13.78,-33.37zm91.71 -129.38l0 94.07 111.94 0c20.78,0 37.08,-3.71 48.87,-11.19 11.73,-7.59 17.65,-19.37 17.65,-35.31l0 -1.29c0,-14.21 -5.54,-25.46 -16.57,-33.8 -10.93,-8.29 -28.58,-12.48 -52.96,-12.48l-108.93 0zm0 -78.36l86.76 0c20.78,0 37.3,-3.5 49.52,-10.55 12.33,-7.16 18.52,-18.73 18.52,-34.66l0 -1.29c0,-14.21 -5.33,-25.03 -15.93,-32.51 -10.66,-7.59 -25.94,-11.41 -45.85,-11.41l-93 0 0 90.41zm0 0z"/>
    <path class="fil3" d="M2411.49 5653.47l0 -333.68c0,-13.02 4.58,-24.11 13.78,-33.15 9.15,-9.15 20.29,-13.78 33.37,-13.78l237.24 0c11.73,0 21.74,4.09 29.92,12.27 8.18,8.08 12.27,18.03 12.27,29.93 0,11.79 -4.09,21.69 -12.27,29.71 -8.18,7.91 -18.19,11.84 -29.92,11.84l-190.74 0 0 86.76 163.18 0c11.74,0 21.75,4.09 29.93,12.27 8.18,8.07 12.27,18.03 12.27,29.93 0,11.79 -4.09,21.69 -12.27,29.7 -8.18,7.91 -18.19,11.84 -29.93,11.84l-163.18 0 0 89.77 193.76 0c11.73,0 21.74,4.09 29.92,12.27 8.18,8.18 12.27,18.19 12.27,29.92 0,11.78 -4.09,21.69 -12.27,29.7 -8.18,7.91 -18.19,11.84 -29.92,11.84l-240.25 0c-13.08,0 -24.22,-4.57 -33.37,-13.78 -9.2,-9.15 -13.78,-20.29 -13.78,-33.37zm0 0z"/>
    <path class="fil3" d="M2791.5 5653.47l0 -333.68c0,-13.02 4.57,-24.11 13.78,-33.15 9.15,-9.15 20.29,-13.78 33.36,-13.78l237.24 0c11.73,0 21.75,4.09 29.93,12.27 8.18,8.08 12.27,18.03 12.27,29.93 0,11.79 -4.09,21.69 -12.27,29.71 -8.18,7.91 -18.19,11.84 -29.93,11.84l-190.73 0 0 86.76 163.18 0c11.73,0 21.74,4.09 29.92,12.27 8.18,8.07 12.27,18.03 12.27,29.93 0,11.79 -4.09,21.69 -12.27,29.7 -8.18,7.91 -18.19,11.84 -29.92,11.84l-163.18 0 0 89.77 193.75 0c11.73,0 21.74,4.09 29.93,12.27 8.18,8.18 12.27,18.19 12.27,29.92 0,11.78 -4.09,21.69 -12.27,29.7 -8.18,7.91 -18.19,11.84 -29.93,11.84l-240.25 0c-13.07,0 -24.22,-4.57 -33.36,-13.78 -9.21,-9.15 -13.78,-20.29 -13.78,-33.37zm0 0z"/>
    <path class="fil3" d="M3325.45 5658.42l0 -341c0,-13.02 4.57,-24.17 13.78,-33.37 9.15,-9.15 20.29,-13.78 33.37,-13.78l10.33 0c10.18,0 18.73,2.37 25.62,7.1 7,4.74 12.76,10.55 17.22,17.44l113.67 185.14 114.31 -185.78c9.74,-15.93 23.79,-23.9 42.19,-23.9l10.33 0c13.02,0 24.16,4.63 33.37,13.78 9.15,9.2 13.77,20.35 13.77,33.37l0 339.7c0,13.08 -4.63,24.22 -13.77,33.37 -9.21,9.2 -20.35,13.78 -33.37,13.78 -13.08,0 -24.11,-4.57 -33.15,-13.78 -8.94,-9.15 -13.35,-20.29 -13.35,-33.37l0 -213.12 -82.45 127.02c-4.9,7.32 -10.49,13.13 -16.79,17.44 -6.35,4.3 -13.78,6.46 -22.39,6.46 -8.5,0 -15.87,-2.15 -22.17,-6.46 -6.35,-4.31 -11.95,-10.12 -16.79,-17.44l-81.37 -125.3 0 212.7c0,13.08 -4.52,24 -13.56,32.72 -8.93,8.77 -19.92,13.13 -32.94,13.13 -12.92,0 -23.84,-4.36 -32.72,-13.13 -8.77,-8.72 -13.13,-19.65 -13.13,-32.72zm0 0z"/>
    <path class="fil3" d="M3802.74 5640.12l148.97 -336.69c5.27,-11.9 12.54,-21.1 21.74,-27.56 9.15,-6.56 20.29,-9.9 33.37,-9.9l5.6 0c12.91,0 23.79,3.33 32.72,9.9 9.04,6.46 16.2,15.66 21.53,27.56l149.19 336.69c3.28,8.93 4.95,15.23 4.95,18.94 0,12.65 -4.31,23.35 -12.92,32.08 -8.61,8.77 -19.27,13.13 -31.86,13.13 -10.93,0 -20.02,-2.96 -27.34,-8.83 -7.32,-5.87 -13.3,-13.67 -17.87,-23.46l-28.63 -67.38 -188.37 0 -29.93 70.4c-4.04,9.36 -9.85,16.57 -17.44,21.74 -7.48,5 -16.09,7.54 -25.83,7.54 -12.22,0 -22.55,-4.2 -31,-12.7 -8.34,-8.61 -12.48,-19 -12.48,-31.22 0,-3.28 0.48,-6.67 1.5,-10.12 0.97,-3.44 2.37,-6.78 4.09,-10.12zm145.96 -118.62l118.62 0 -59.2 -141.22 -59.42 141.22zm0 0z"/>
    <path class="fil3" d="M4265.08 5316.13c0,-13.03 4.58,-24.11 13.78,-33.15 9.15,-9.15 20.29,-13.78 33.37,-13.78 13.02,0 24.16,4.63 33.37,13.78 9.15,9.04 13.78,20.13 13.78,33.15l0 299.02 174.16 0c11.73,0 21.8,4.2 30.14,12.49 8.44,8.34 12.7,18.41 12.7,30.14 0,11.94 -4.26,22.07 -12.7,30.35 -8.34,8.34 -18.41,12.48 -30.14,12.48l-221.3 0c-13.08,0 -24.22,-4.57 -33.37,-13.78 -9.2,-9.15 -13.78,-20.29 -13.78,-33.37l0 -337.34zm0 0z"/>
    <path class="fil3" d="M4613.93 5316.13c0,-13.03 4.57,-24.11 13.78,-33.15 9.15,-9.15 20.29,-13.78 33.37,-13.78 13.02,0 24.17,4.63 33.37,13.78 9.15,9.04 13.78,20.13 13.78,33.15l0 299.02 174.16 0c11.73,0 21.8,4.2 30.14,12.49 8.45,8.34 12.7,18.41 12.7,30.14 0,11.94 -4.25,22.07 -12.7,30.35 -8.34,8.34 -18.41,12.48 -30.14,12.48l-221.31 0c-13.08,0 -24.22,-4.57 -33.37,-13.78 -9.2,-9.15 -13.78,-20.29 -13.78,-33.37l0 -337.34zm0 0z"/>
    <path class="fil3" d="M2488.82 5905.76l0 -39.18 -37.89 0 0 39.18 -22.17 0 0 -97.31 22.17 0 0 37.46 37.89 0 0 -37.46 22.17 0 0 97.31 -22.17 0zm0 0z"/>
    <path class="fil3" d="M2583.52 5905.76l38.54 -97.31 21.74 0 38.54 97.31 -23.68 0 -6.46 -16.79 -38.54 0 -6.67 16.79 -23.46 0zm35.74 -34.23l27.34 0 -13.78 -35.52 -13.56 35.52zm0 0z"/>
    <path class="fil3" d="M2754.78 5905.76l0 -97.31 38.11 0c7.85,0 14.69,1.46 20.45,4.31 5.7,2.91 10.17,7 13.35,12.27 3.12,5.33 4.73,11.57 4.73,18.73 0,7.05 -1.61,13.24 -4.73,18.52 -3.18,5.17 -7.65,9.2 -13.35,12.06 -5.76,2.91 -12.59,4.31 -20.45,4.31l-15.93 0 0 27.12 -22.18 0zm21.96 -46.07l14.43 0c5.7,0 10.11,-1.34 13.13,-4.09 3.12,-2.69 4.74,-6.68 4.74,-11.84 0,-5 -1.62,-8.88 -4.74,-11.62 -3.02,-2.85 -7.43,-4.31 -13.13,-4.31l-14.43 0 0 31.86zm0 0z"/>
    <path class="fil3" d="M2906.69 5905.76l0 -97.31 38.11 0c7.86,0 14.69,1.46 20.45,4.31 5.7,2.91 10.17,7 13.35,12.27 3.12,5.33 4.73,11.57 4.73,18.73 0,7.05 -1.61,13.24 -4.73,18.52 -3.18,5.17 -7.65,9.2 -13.35,12.06 -5.76,2.91 -12.59,4.31 -20.45,4.31l-15.93 0 0 27.12 -22.17 0zm21.96 -46.07l14.42 0c5.7,0 10.12,-1.34 13.13,-4.09 3.12,-2.69 4.74,-6.68 4.74,-11.84 0,-5 -1.62,-8.88 -4.74,-11.62 -3.01,-2.85 -7.43,-4.31 -13.13,-4.31l-14.42 0 0 31.86zm0 0z"/>
    <path class="fil3" d="M3084.01 5905.76l0 -34.01 -35.74 -63.3 25.19 0 12.06 22.61 9.69 17.65 9.47 -17.65 12.06 -22.61 25.19 0 -35.74 63.08 0 34.23 -22.17 0zm0 0z"/>
    <path class="fil3" d="M3340.55 5907.7c-8.18,0 -15.23,-1.29 -21.1,-3.88 -5.92,-2.69 -10.5,-6.51 -13.78,-11.41 -3.18,-5 -4.74,-10.87 -4.74,-17.65l21.74 0c0,4.63 1.56,8.29 4.74,10.98 3.28,2.59 7.59,3.87 12.92,3.87 4.57,0 8.24,-0.91 10.98,-2.8 2.69,-1.83 4.09,-4.36 4.09,-7.54 0,-3.44 -1.67,-6.24 -4.95,-8.39 -3.33,-2.15 -8.34,-3.93 -15.07,-5.38 -11.52,-2.42 -19.97,-6.08 -25.41,-10.98 -5.49,-4.84 -8.18,-11.25 -8.18,-19.16 0,-8.88 3.23,-15.93 9.69,-21.1 6.56,-5.17 15.5,-7.75 26.69,-7.75 7.59,0 14.21,1.4 19.8,4.09 5.71,2.58 10.12,6.35 13.14,11.19 3.12,4.74 4.73,10.33 4.73,16.8l-21.31 0c0,-4.31 -1.45,-7.65 -4.3,-10.12 -2.91,-2.58 -6.83,-3.87 -11.84,-3.87 -4.63,0 -8.29,0.97 -10.98,2.8 -2.74,1.72 -4.09,4.26 -4.09,7.54 0,3.02 1.51,5.55 4.52,7.54 3.02,2.04 8.18,3.87 15.5,5.59 12.17,2.91 20.94,6.78 26.27,11.62 5.27,4.74 7.96,10.98 7.96,18.73 0,9.2 -3.33,16.36 -9.9,21.53 -6.62,5.17 -15.66,7.75 -27.13,7.75zm0 0z"/>
    <path class="fil3" d="M3515.18 5905.76l0 -39.18 -37.89 0 0 39.18 -22.18 0 0 -97.31 22.18 0 0 37.46 37.89 0 0 -37.46 22.18 0 0 97.31 -22.18 0zm0 0z"/>
    <path class="fil3" d="M3666.28 5907.7c-10.06,0 -19.05,-2.16 -26.91,-6.46 -7.75,-4.31 -13.89,-10.22 -18.3,-17.87 -4.31,-7.59 -6.46,-16.36 -6.46,-26.26 0,-9.91 2.15,-18.62 6.46,-26.27 4.41,-7.59 10.55,-13.56 18.3,-17.87 7.86,-4.3 16.85,-6.46 26.91,-6.46 10.17,0 19.16,2.16 26.91,6.46 7.86,4.3 14.05,10.28 18.52,17.87 4.41,7.65 6.67,16.36 6.67,26.27 0,9.9 -2.26,18.67 -6.67,26.26 -4.47,7.64 -10.66,13.56 -18.52,17.87 -7.75,4.3 -16.74,6.46 -26.91,6.46zm-29.28 -50.59c0,5.92 1.19,11.09 3.66,15.5 2.58,4.46 6.03,7.96 10.33,10.55 4.41,2.48 9.53,3.66 15.29,3.66 5.87,0 10.98,-1.19 15.29,-3.66 4.41,-2.58 7.86,-6.08 10.33,-10.55 2.43,-4.41 3.67,-9.58 3.67,-15.5 0,-5.71 -1.24,-10.82 -3.67,-15.29 -2.47,-4.41 -5.91,-7.86 -10.33,-10.33 -4.31,-2.58 -9.42,-3.87 -15.29,-3.87 -5.76,0 -10.87,1.29 -15.29,3.87 -4.3,2.48 -7.75,5.92 -10.33,10.33 -2.48,4.47 -3.66,9.58 -3.66,15.29zm0 0z"/>
    <path class="fil3" d="M3795.42 5905.76l0 -97.31 38.11 0c7.86,0 14.69,1.46 20.45,4.31 5.71,2.91 10.18,7 13.35,12.27 3.12,5.33 4.73,11.57 4.73,18.73 0,7.05 -1.61,13.24 -4.73,18.52 -3.17,5.17 -7.64,9.2 -13.35,12.06 -5.76,2.91 -12.59,4.31 -20.45,4.31l-15.93 0 0 27.12 -22.18 0zm21.96 -46.07l14.43 0c5.7,0 10.11,-1.34 13.13,-4.09 3.12,-2.69 4.74,-6.68 4.74,-11.84 0,-5 -1.61,-8.88 -4.74,-11.62 -3.02,-2.85 -7.43,-4.31 -13.13,-4.31l-14.43 0 0 31.86zm0 0z"/>
    <path class="fil3" d="M3947.33 5905.76l0 -97.31 38.11 0c7.86,0 14.69,1.46 20.45,4.31 5.71,2.91 10.17,7 13.35,12.27 3.12,5.33 4.74,11.57 4.74,18.73 0,7.05 -1.61,13.24 -4.74,18.52 -3.18,5.17 -7.64,9.2 -13.35,12.06 -5.76,2.91 -12.59,4.31 -20.45,4.31l-15.93 0 0 27.12 -22.18 0zm21.96 -46.07l14.43 0c5.7,0 10.11,-1.34 13.13,-4.09 3.12,-2.69 4.74,-6.68 4.74,-11.84 0,-5 -1.62,-8.88 -4.74,-11.62 -3.02,-2.85 -7.43,-4.31 -13.13,-4.31l-14.43 0 0 31.86zm0 0z"/>
    <path class="fil3" d="M4099.25 5905.76l0 -97.31 22.18 0 0 97.31 -22.18 0zm0 0z"/>
    <path class="fil3" d="M4204.29 5905.76l0 -97.31 18.72 0 43.06 59.2 0 -59.2 21.75 0 0 97.31 -18.73 0 -42.84 -59.63 0 59.63 -21.96 0zm0 0z"/>
    <path class="fil3" d="M4415.97 5907.7c-9.91,0 -18.73,-2.16 -26.48,-6.46 -7.64,-4.31 -13.56,-10.22 -17.87,-17.87 -4.31,-7.59 -6.46,-16.36 -6.46,-26.26 0,-9.91 2.15,-18.62 6.46,-26.27 4.3,-7.59 10.22,-13.56 17.87,-17.87 7.59,-4.3 16.36,-6.46 26.27,-6.46 7.75,0 14.91,1.45 21.53,4.31 6.72,2.75 12.37,6.62 17.01,11.63 4.73,5.06 8.07,10.98 10.11,17.87l-23.68 0c-2.47,-4.15 -5.81,-7.37 -10.12,-9.69 -4.2,-2.42 -9.04,-3.66 -14.64,-3.66 -5.59,0 -10.66,1.3 -15.07,3.87 -4.3,2.59 -7.69,6.19 -10.11,10.76 -2.48,4.47 -3.66,9.64 -3.66,15.5 0,5.92 1.19,11.14 3.66,15.71 2.42,4.47 5.81,8.07 10.11,10.76 4.31,2.58 9.48,3.87 15.5,3.87 7,0 12.92,-1.78 17.65,-5.38 4.74,-3.55 7.8,-8.39 9.26,-14.42l-31.65 0 0 -17.01 54.9 0c0.54,8.34 -0.22,16.04 -2.37,23.04 -2.15,6.89 -5.54,12.92 -10.12,18.09 -4.46,5.06 -9.9,8.98 -16.36,11.83 -6.35,2.69 -13.56,4.09 -21.74,4.09zm0 0z"/>
    <g>
     <path class="fil4" d="M3775.89 4477.76c-8.84,144.81 -73.49,273.65 -172.3,366.24 -98.89,92.67 -231.9,149.15 -377.39,149.15 -148.96,0 -284.5,-59.12 -383.89,-155.35 -99.28,-96.12 -162.36,-229.41 -166.55,-377.89l66.9 -1.83c3.67,130.23 59.1,247.24 146.35,331.71 87.14,84.37 206.18,136.2 337.19,136.2 127.96,0 244.78,-49.52 331.49,-130.78 86.78,-81.33 143.56,-194.39 151.31,-321.38l66.9 3.93z"/>
     <circle class="fil5" cx="2939.87" cy="4115.91" r="101.11"/>
     <circle class="fil5 str0" cx="3543.38" cy="4115.91" r="101.11"/>
     <circle class="fil5" cx="2713.85" cy="4460.32" r="63.2"/>
     <circle class="fil5" cx="3739.29" cy="4460.32" r="63.2"/>
    </g>
   </g>
  </g>
  <rect class="fil6 str1" x="504.64" y="2315.14" width="5915.65" height="5216.4"/>
 </g>
</svg>
